<?xml version="1.0" standalone="no"?>
<!DOCTYPE svg PUBLIC "-//W3C//DTD SVG 20010904//EN"
 "http://www.w3.org/TR/2001/REC-SVG-20010904/DTD/svg10.dtd">
<svg version="1.0" xmlns="http://www.w3.org/2000/svg"
 width="700.000000pt" height="700.000000pt" viewBox="0 0 700.000000 700.000000"
 preserveAspectRatio="xMidYMid meet">
<metadata>
Created by potrace 1.14, written by Peter Selinger 2001-2017
</metadata>
<g transform="translate(0.000000,700.000000) scale(0.100000,-0.100000)"
fill="#000000" stroke="none">
<path d="M548 6988 c-23 -18 -38 -79 -57 -242 -8 -58 -5 -344 3 -401 2 -16 7
-52 10 -80 4 -27 9 -61 12 -75 2 -14 6 -36 9 -50 4 -23 19 -96 29 -145 29
-135 123 -423 196 -598 51 -120 186 -398 228 -467 12 -19 31 -52 42 -73 35
-64 160 -258 228 -352 60 -83 223 -296 247 -321 5 -6 48 -54 95 -107 136 -154
324 -336 500 -483 636 -532 1399 -882 2265 -1040 11 -2 59 -10 107 -18 48 -9
108 -25 135 -38 69 -32 147 -112 180 -183 24 -52 27 -73 28 -155 0 -85 -4
-108 -39 -210 -70 -204 -227 -490 -380 -690 -27 -36 -52 -67 -56 -70 -3 -3
-13 -14 -21 -26 -106 -154 -499 -529 -749 -714 -143 -105 -476 -320 -497 -320
-15 0 -92 -57 -96 -72 -3 -9 2 -26 10 -38 14 -19 21 -21 71 -15 293 34 834
286 1317 613 468 318 869 697 1103 1045 213 315 308 637 258 877 -54 260 -235
464 -481 543 -70 23 -115 30 -260 42 -38 3 -83 8 -100 10 -16 3 -52 7 -80 11
-27 3 -59 7 -70 9 -11 1 -45 6 -75 10 -65 8 -374 69 -457 89 -32 8 -94 24
-138 35 -188 46 -559 172 -703 237 -29 13 -55 24 -58 24 -16 0 -369 179 -482
244 -400 231 -755 517 -1052 846 -41 45 -80 88 -85 94 -6 6 -28 34 -50 61 -22
28 -43 52 -46 55 -18 15 -153 203 -233 325 -317 480 -568 1080 -707 1690 -29
128 -54 159 -101 123z"/>
<path d="M2660 6902 c-34 -28 -93 -251 -124 -472 -14 -102 -20 -216 -21 -405
0 -244 9 -376 40 -557 3 -16 7 -43 10 -60 12 -73 57 -246 91 -351 137 -422
360 -759 679 -1027 90 -76 296 -220 315 -220 4 0 13 6 19 14 9 11 2 33 -32
102 -61 123 -96 236 -111 366 -12 91 -19 106 -83 179 -336 380 -547 856 -658
1484 -2 17 -7 50 -10 75 -3 25 -8 54 -10 65 -2 11 -7 52 -11 90 -3 39 -8 81
-11 95 -2 14 -6 155 -8 315 -3 159 -6 294 -9 301 -8 20 -45 23 -66 6z"/>
<path d="M4144 5512 c-159 -127 -285 -318 -349 -527 -31 -101 -38 -101 -80 7
-48 126 -58 125 -78 -6 -13 -80 -15 -267 -3 -321 35 -161 67 -254 123 -355 20
-36 39 -67 42 -70 14 -12 51 -70 51 -80 0 -20 -26 -9 -100 45 -45 33 -78 51
-83 46 -6 -6 -5 -28 3 -58 6 -26 13 -55 15 -63 7 -34 50 -138 78 -190 79 -146
203 -259 367 -337 60 -29 172 -67 224 -77 11 -2 41 -9 66 -15 25 -5 61 -13 80
-16 19 -3 42 -8 50 -10 8 -2 38 -7 65 -10 28 -3 61 -8 75 -10 27 -5 80 -12
150 -20 84 -10 135 -16 160 -20 14 -3 56 -7 95 -11 259 -22 453 -107 630 -276
208 -197 319 -480 310 -793 -4 -129 -6 -146 -35 -273 -21 -87 -74 -226 -117
-301 -14 -25 -31 -55 -37 -66 -6 -11 -36 -59 -66 -107 -88 -140 -92 -149 -76
-173 21 -32 57 -30 102 5 129 102 217 189 285 281 22 30 45 61 52 70 73 95
168 335 191 479 3 19 8 46 11 60 20 105 19 406 -1 442 -2 3 3 14 12 23 15 15
18 14 32 -6 23 -33 52 -114 81 -224 24 -93 28 -100 51 -100 24 0 25 2 26 75 2
137 -38 302 -110 449 -165 338 -564 636 -1021 761 -215 59 -444 152 -584 238
-47 28 -89 48 -94 45 -12 -7 -2 -102 23 -222 11 -52 18 -96 15 -99 -9 -10
-140 32 -207 65 -147 74 -228 191 -236 338 -4 80 0 103 47 280 40 149 38 156
-37 131 -214 -71 -412 114 -353 330 24 90 119 175 218 193 27 6 109 11 182 12
163 3 225 12 319 45 122 44 214 149 236 269 8 42 9 145 2 152 -3 4 -31 -18
-60 -48 -114 -114 -258 -150 -429 -105 -72 19 -183 13 -241 -13 -67 -29 -72
-18 -36 89 17 53 27 97 22 102 -5 5 -30 -8 -58 -30z"/>
<path d="M2273 5419 c-25 -9 -31 -24 -42 -115 -21 -177 10 -454 75 -658 49
-154 79 -193 238 -311 104 -76 257 -181 276 -187 35 -12 70 39 40 57 -21 13
-118 144 -172 230 -143 233 -282 590 -338 865 -11 56 -20 104 -20 106 0 11
-38 20 -57 13z"/>
<path d="M4890 5054 c-132 -95 -244 -123 -520 -128 -159 -3 -187 -11 -233 -65
-50 -60 -47 -140 8 -195 56 -57 126 -57 214 -1 24 14 52 28 63 30 35 7 68 -14
84 -52 33 -77 23 -186 -35 -386 -45 -154 -10 -270 109 -360 l36 -26 -3 99 c-3
123 15 182 63 205 18 8 36 15 42 15 5 0 52 -29 103 -64 313 -211 808 -348 968
-267 90 46 112 143 41 185 -29 16 -33 16 -80 1 -96 -32 -140 -18 -140 45 0 50
29 63 153 70 125 7 165 21 216 71 52 53 64 76 67 136 5 99 -28 140 -96 123
-58 -15 -68 20 -15 51 53 32 48 47 -30 86 -109 56 -263 112 -365 132 -96 19
-103 21 -175 27 -97 8 -118 20 -122 67 -6 76 -38 108 -153 152 -41 16 -94 40
-117 52 -23 13 -43 23 -45 23 -2 -1 -19 -12 -38 -26z m191 -234 c22 -12 25
-57 8 -126 -12 -45 -13 -46 -43 -39 -17 4 -64 8 -104 9 -58 1 -75 5 -83 18
-17 30 94 120 171 139 14 4 26 7 28 8 2 0 12 -4 23 -9z"/>
<path d="M493 4999 c-28 -10 -32 -41 -20 -159 12 -118 18 -154 38 -240 77
-321 203 -605 406 -913 47 -70 90 -133 96 -140 7 -7 29 -34 50 -62 74 -97 133
-162 277 -305 180 -180 199 -197 430 -373 159 -121 449 -284 686 -385 272
-116 641 -225 874 -257 25 -3 52 -8 60 -10 8 -2 42 -7 75 -11 33 -3 70 -8 83
-9 32 -5 146 -15 217 -21 92 -7 513 -6 535 1 11 4 25 15 30 25 16 30 -17 56
-86 68 -33 6 -70 14 -84 17 -14 3 -38 8 -55 11 -16 2 -68 14 -115 25 -47 11
-92 22 -100 24 -47 10 -306 78 -365 96 -38 11 -79 23 -90 26 -35 9 -269 84
-290 93 -11 5 -49 19 -85 31 -36 13 -76 29 -90 36 -14 7 -29 13 -33 13 -33 0
-442 193 -586 277 -53 31 -112 64 -131 75 -53 30 -214 143 -308 215 -95 73
-126 99 -231 199 -64 61 -73 74 -63 87 11 13 30 6 145 -52 133 -68 297 -128
317 -116 28 17 5 45 -92 111 -100 67 -328 239 -397 299 -229 198 -446 416
-581 584 -19 24 -46 58 -60 75 -29 35 -89 116 -142 191 -57 81 -151 242 -211
361 -31 61 -62 114 -69 116 -7 3 -23 2 -35 -3z"/>
<path d="M1250 2700 c-10 -10 -17 -27 -16 -37 38 -194 209 -435 446 -626 245
-198 641 -382 930 -433 14 -3 33 -7 42 -10 10 -3 30 -7 45 -10 16 -2 37 -6 48
-9 11 -2 45 -7 75 -10 30 -3 66 -8 80 -10 135 -21 571 -21 679 0 9 2 47 6 83
9 37 4 77 9 89 11 13 3 41 7 64 10 132 19 421 87 438 104 5 5 7 21 3 36 l-7
26 -87 -8 c-115 -10 -668 -10 -757 1 -38 4 -86 9 -105 11 -120 8 -376 52 -540
92 -263 64 -640 210 -640 247 0 20 -19 18 193 20 122 2 182 7 190 15 14 14 -2
27 -43 37 -101 24 -319 91 -426 130 -256 92 -437 190 -629 339 -60 47 -115 85
-122 85 -7 0 -22 -9 -33 -20z"/>
<path d="M2143 1344 c-9 -23 18 -69 82 -141 138 -154 385 -285 623 -329 12 -2
34 -7 50 -10 15 -3 95 -8 177 -10 179 -4 309 15 481 71 218 71 534 254 534
309 0 36 -34 35 -131 -1 -88 -33 -191 -65 -249 -77 -14 -3 -36 -8 -50 -11
-172 -42 -341 -60 -550 -59 -199 1 -238 4 -252 22 -14 16 6 39 37 45 89 16
234 80 280 123 17 15 25 29 19 31 -6 2 -71 -7 -145 -21 -344 -63 -585 -50
-796 45 -74 33 -101 36 -110 13z"/>
</g>
</svg>
