<svg width="16" height="16" viewBox="0 0 16 16" fill="currentColor" xmlns="http://www.w3.org/2000/svg">
<path d="M8.65598 11.7589L15.656 5.75891C15.8533 5.58514 15.9743 5.34063 15.9927 5.07833C16.0111 4.81604 15.9254 4.55705 15.7542 4.35744C15.5831 4.15784 15.3402 4.03368 15.0781 4.01185C14.8161 3.99002 14.556 4.07228 14.3542 4.24081L8.00508 9.68271L1.65598 4.24081C1.4546 4.06818 1.19289 3.98262 0.928427 4.00294C0.663963 4.02327 0.418406 4.14783 0.245777 4.34921C0.0731478 4.55058 -0.012413 4.81229 0.0079155 5.07676C0.028244 5.34122 0.152799 5.58678 0.354177 5.75941L7.35418 11.7594C7.5355 11.9147 7.76641 12.0001 8.00517 12C8.24393 11.9999 8.47478 11.9144 8.65598 11.7589Z"/>
</svg>
