<svg width="8" height="16" viewBox="0 0 8 16" fill="#004A36" xmlns="http://www.w3.org/2000/svg">
<path d="M7.75891 7.34402L1.75891 0.344021C1.58514 0.146681 1.34063 0.025722 1.07833 0.00733318C0.816036 -0.0110557 0.557048 0.0746051 0.357444 0.245769C0.15784 0.416934 0.0336824 0.659827 0.0118522 0.921863C-0.00997793 1.1839 0.072276 1.44399 0.240806 1.64582L5.68271 7.99492L0.240806 14.344C0.0681762 14.5454 -0.017385 14.8071 0.00294395 15.0716C0.0232729 15.336 0.147827 15.5816 0.349206 15.7542C0.550585 15.9269 0.812293 16.0124 1.07676 15.9921C1.34122 15.9718 1.58678 15.8472 1.75941 15.6458L7.75941 8.64582C7.91475 8.4645 8.00008 8.23359 7.99999 7.99483C7.9999 7.75607 7.91438 7.52522 7.75891 7.34402Z"/>
</svg>
