<svg width="31" height="31" viewBox="0 0 31 31" fill="currentColor" xmlns="http://www.w3.org/2000/svg">
<g id="close">
<path d="M2.00715 31.0248C1.49301 31.0248 0.978508 30.828 0.587206 30.4363C-0.19834 29.6512 -0.19834 28.3816 0.587206 27.5965L27.569 0.614274C28.3542 -0.170904 29.6237 -0.170904 30.4089 0.614274C31.1945 1.39945 31.1945 2.66898 30.4089 3.45416L3.42709 30.4363C3.03321 30.8298 2.52128 31.0248 2.00715 31.0248Z"/>
<path d="M28.989 31.0248C28.4748 31.0248 27.9607 30.828 27.569 30.4363L0.587206 3.45416C-0.19834 2.66898 -0.19834 1.39945 0.587206 0.614274C1.37238 -0.170904 2.64154 -0.170904 3.42709 0.614274L30.4089 27.5965C31.1945 28.3816 31.1945 29.6512 30.4089 30.4363C30.0172 30.8298 29.5031 31.0248 28.989 31.0248Z"/>
</g>
</svg>
