<svg width="22" height="22" viewBox="0 0 22 22" fill="none" xmlns="http://www.w3.org/2000/svg">
<path d="M14.6329 5.36276H19.4291L13.9887 0V4.71823C13.9887 5.07362 14.2777 5.36276 14.6329 5.36276Z" fill="#CE491F"/>
<path d="M2.57812 21.3555C2.57812 21.7114 2.8667 22 3.22266 22H18.7846C19.1405 22 19.4291 21.7114 19.4291 21.3555V19.8086H2.57812V21.3555Z" fill="#CE491F"/>
<path d="M19.4291 6.65182H14.6329C13.5669 6.65182 12.6997 5.78441 12.6997 4.71823V0H3.22266C2.8667 0 2.57812 0.288578 2.57812 0.644531V8.29297H19.4291V6.65182Z" fill="#CE491F"/>
<path d="M20.7109 9.53906H1.28906C0.577113 9.53906 0 10.1162 0 10.8281V17.2734C0 17.9853 0.577156 18.5625 1.28906 18.5625H20.7109C21.4228 18.5625 22 17.9853 22 17.2734V10.8281C22 10.1162 21.4228 9.53906 20.7109 9.53906Z" fill="#CE491F"/>
</svg>
