<svg width="22" height="22" fill="none" xmlns="http://www.w3.org/2000/svg"><path d="M14.633 5.363h4.796L13.99 0v4.718c0 .356.289.645.644.645zM2.578 21.355c0 .356.289.645.645.645h15.562a.645.645 0 00.644-.645V19.81H2.58v1.546z" fill="#CE491F"/><path d="M19.43 6.652h-4.797A1.936 1.936 0 0112.7 4.718V0H3.223a.645.645 0 00-.645.645v7.648H19.43V6.652zm1.28 2.888H1.29c-.713 0-1.29.576-1.29 1.288v6.445c0 .712.577 1.29 1.29 1.29h19.42a1.29 1.29 0 001.29-1.29v-6.445a1.29 1.29 0 00-1.29-1.289z" fill="#CE491F"/></svg>