<svg width="48" height="48" viewBox="0 0 48 48" fill="none" xmlns="http://www.w3.org/2000/svg">
<g clip-path="url(#clip0_3251_4367)">
<rect width="48" height="48" rx="8" fill="#004A36"/>
<path d="M29.3266 25.4942L26.3115 28.5195C25.0889 29.7464 22.9376 29.7729 21.6885 28.5195L18.6733 25.4942L7.84402 36.3586C8.24712 36.545 8.69156 36.6562 9.16406 36.6562H38.8359C39.3084 36.6562 39.7527 36.5452 40.1557 36.3587L29.3266 25.4942Z" fill="white"/>
<path d="M38.8359 11.3438H9.16406C8.69156 11.3438 8.24712 11.455 7.84416 11.6414L19.416 23.2516L19.4184 23.2533L19.4194 23.2551L23.182 27.0302C23.5816 27.4298 24.4185 27.4298 24.8182 27.0302L28.58 23.2557L28.5817 23.2533L28.5842 23.2516L40.1557 11.6413C39.7527 11.4548 39.3084 11.3438 38.8359 11.3438Z" fill="white"/>
<path d="M6.33652 13.1165C6.12797 13.5382 6 14.0063 6 14.5078V33.4922C6 33.9937 6.12783 34.4618 6.33645 34.8835L17.1845 24.0004L6.33652 13.1165Z" fill="white"/>
<path d="M41.6635 13.1163L30.8156 24.0004L41.6635 34.8837C41.872 34.4619 42 33.9938 42 33.4922V14.5078C42 14.0062 41.872 13.5381 41.6635 13.1163Z" fill="white"/>
</g>
<defs>
<clipPath id="clip0_3251_4367">
<rect width="48" height="48" fill="white"/>
</clipPath>
</defs>
</svg>
