<svg width="48" height="48" fill="none" xmlns="http://www.w3.org/2000/svg"><g clip-path="url(#clip0_3251_4367)"><rect width="48" height="48" rx="8" fill="#004A36"/><path d="M29.327 25.494L26.31 28.52c-1.222 1.226-3.373 1.253-4.622 0l-3.016-3.026L7.844 36.36a3.14 3.14 0 001.32.297h29.672a3.13 3.13 0 001.32-.297l-10.83-10.865z" fill="#fff"/><path d="M38.836 11.344H9.164a3.14 3.14 0 00-1.32.297l11.572 11.61.002.002.001.002 3.763 3.775c.4.4 1.237.4 1.636 0l3.762-3.774.002-.003.002-.001 11.572-11.61a3.13 3.13 0 00-1.32-.298zM6.337 13.117c-.209.421-.337.89-.337 1.39v18.985c0 .502.128.97.336 1.392L17.185 24 6.336 13.117zm35.326-.001L30.816 24l10.848 10.884c.208-.422.336-.89.336-1.392V14.508c0-.502-.128-.97-.337-1.392z" fill="#fff"/></g><defs><clipPath id="clip0_3251_4367"><path fill="#fff" d="M0 0h48v48H0z"/></clipPath></defs></svg>