<svg width="48" height="49" fill="none" xmlns="http://www.w3.org/2000/svg"><g clip-path="url(#clip0_1300_673)"><rect y=".333" width="48" height="48" rx="8" fill="#004A36"/><g clip-path="url(#clip1_1300_673)"><path d="M28.329 15.244c.049-.056.279-.237 1.181-.237h2.96a1.75 1.75 0 001.747-1.747V8.086a1.75 1.75 0 00-1.744-1.746l-4.396-.007c-2.714 0-5.021.895-6.672 2.589-1.643 1.686-2.512 4.04-2.512 6.806v2.79H15.53c-.963 0-1.746.784-1.746 1.747v5.572c0 .963.783 1.746 1.746 1.746h3.363v13.004c0 .963.784 1.746 1.747 1.746h5.765c.963 0 1.746-.783 1.746-1.746V27.583h4.111c.963 0 1.746-.783 1.746-1.746l.002-5.572c0-.632-.344-1.218-.898-1.527a1.775 1.775 0 00-.864-.22h-4.097v-2.204c0-.718.097-.978.178-1.07z" fill="#fff"/></g></g><defs><clipPath id="clip0_1300_673"><path fill="#fff" transform="translate(0 .333)" d="M0 0h48v48H0z"/></clipPath><clipPath id="clip1_1300_673"><path fill="#fff" transform="translate(4.784 6.333)" d="M0 0h38.433v36H0z"/></clipPath></defs></svg>