<svg width="26" height="26" viewBox="0 0 26 26" fill="none" xmlns="http://www.w3.org/2000/svg">
<mask id="mask0_2437_357" style="mask-type:alpha" maskUnits="userSpaceOnUse" x="0" y="0" width="26" height="25">
<circle cx="13" cy="12.75" r="12.25" fill="#D9D9D9"/>
</mask>
<g mask="url(#mask0_2437_357)">
<path d="M26.1201 0.75H-1.29883V13H26.1201V0.75Z" fill="#F5F5F5"/>
<path d="M27.1729 13H-1.29883V25.25H27.1729V13Z" fill="#73AF00"/>
<path d="M15.7494 7.18513C14.041 8.32562 12.4844 9.63967 12.2674 10.1107C12.1752 10.3153 12.1427 10.526 12.121 11.0653C12.0776 11.9516 12.0668 11.964 11.3075 12.1438C10.6946 12.2863 10.6349 12.274 10.662 11.9516C10.6783 11.8215 10.7108 11.7967 10.8844 11.7781C10.9929 11.7657 11.0851 11.7347 11.0851 11.7037C11.0851 11.5549 10.9983 11.4372 10.8085 11.3256C10.6349 11.2264 10.597 11.1707 10.597 11.0219C10.597 10.774 10.6566 10.7554 10.9549 10.8979C11.0959 10.9661 11.2207 11.0095 11.2369 10.9971C11.3075 10.9103 11.1664 10.6314 10.9495 10.4269C10.7 10.1975 10.6458 10.0364 10.7814 9.91239C10.8356 9.86281 10.9007 9.869 11.0471 9.93719C11.302 10.055 11.302 10.055 11.302 9.8876C11.302 9.70165 11.1664 9.49091 10.9712 9.37934C10.7705 9.26157 10.8139 9.16239 11.0634 9.16239C11.3671 9.16239 11.2803 8.93306 10.8898 8.70992C10.7054 8.60455 10.5698 8.30703 10.6186 8.12727C10.6349 8.06529 10.7759 7.91653 10.9332 7.79876C11.1502 7.63761 11.1936 7.58182 11.123 7.56323C11.0363 7.54463 11.0254 7.50124 11.058 7.22852L11.0959 6.9186L10.9712 7.01158C10.9007 7.06116 10.6946 7.15414 10.5156 7.20992C10.3366 7.26571 10.1088 7.36488 10.0112 7.43306C9.85391 7.53843 9.74001 7.55083 9.04578 7.53843L8.25934 7.51984L8.09663 7.72438C7.94477 7.91653 7.90138 7.93513 7.48376 7.98471C7.23427 8.0157 6.94139 8.08389 6.82749 8.13967C6.58343 8.25124 6.25801 8.52397 6.25801 8.60455C6.25801 8.64174 6.49122 8.66033 6.80037 8.65413C7.25596 8.64793 7.35901 8.66653 7.45122 8.7595C7.51088 8.82149 7.55969 8.90826 7.55969 8.94545C7.55969 8.98884 7.61393 9.04463 7.68443 9.07562C7.82545 9.1314 7.218 9.18099 6.64851 9.15C6.29055 9.1314 6.28512 9.1314 6.43699 9.03843L6.58343 8.93925L6.17123 8.82769C5.73191 8.71611 5.46073 8.59215 5.20581 8.3938L5.05395 8.27603L5.09191 8.42479C5.17869 8.73471 5.30886 8.95785 5.65598 9.36694C6.14411 9.94958 6.44241 10.1169 6.25258 9.70785C6.19292 9.57768 6.19835 9.57768 6.64309 9.61487C6.89258 9.63967 7.20715 9.65826 7.34274 9.65826C7.58138 9.65826 7.58681 9.66446 7.65732 9.90619C7.68986 10.0426 7.7224 10.2099 7.7224 10.2781C7.7224 10.4331 7.8146 10.65 7.87969 10.65C7.90681 10.65 7.96647 10.5322 8.0207 10.3897C8.10206 10.1479 8.11833 10.1355 8.18341 10.2347C8.2485 10.3401 8.26477 10.3339 8.35155 10.1231C8.40036 9.99917 8.51426 9.85661 8.60104 9.80702C8.87764 9.63967 9.02951 9.83181 8.80714 10.0612C8.74748 10.1231 8.69866 10.2347 8.69866 10.3153C8.69866 10.3959 8.639 10.5632 8.56307 10.6872C8.48714 10.8111 8.42748 10.9785 8.42748 11.0529C8.42748 11.1273 8.37867 11.2388 8.32443 11.2946C8.26477 11.3566 8.19968 11.493 8.17799 11.5983C8.16172 11.7037 8.09663 11.8711 8.0424 11.9764C7.98816 12.0818 7.93935 12.2802 7.93935 12.4227C7.93935 12.5591 7.90138 12.7264 7.85799 12.7946C7.75494 12.9496 7.75494 13.3959 7.86342 13.6314C7.93935 13.8049 7.93935 13.8297 7.85257 13.9413C7.80376 14.0033 7.7224 14.0591 7.67359 14.0591C7.55427 14.0591 7.20715 13.9165 7.11495 13.8297C7.07698 13.7863 6.97393 13.7306 6.89258 13.6934C6.81122 13.6562 6.74614 13.5818 6.74614 13.5322C6.74614 13.4764 6.6919 13.3711 6.62139 13.2967C6.54004 13.2099 6.46953 13.0301 6.43156 12.7946C6.3936 12.5963 6.32851 12.3483 6.28512 12.243C6.17665 11.9888 6.17665 11.9888 6.40987 11.7223C6.58343 11.524 6.62682 11.431 6.65393 11.1459C6.68648 10.8607 6.67563 10.7864 6.58343 10.6872C6.48038 10.5694 6.48038 10.5694 6.44241 10.7492C6.40445 10.9289 6.27428 11.1459 6.20377 11.1459C6.18207 11.1459 6.17665 11.0591 6.19292 10.9599C6.24174 10.588 5.92174 10.0921 5.63428 10.0921H5.50411L5.63428 10.2471C5.78615 10.4145 5.79699 10.5322 5.69937 11.0157L5.62886 11.3442L5.53123 11.0963C5.47157 10.9413 5.3631 10.805 5.22751 10.7182C4.92378 10.526 4.62005 10.557 4.90209 10.7616C4.97802 10.8111 5.01056 10.9041 5.01056 11.0467C5.01056 11.3628 5.11361 11.6541 5.28717 11.8339L5.44445 11.9888L5.37937 12.5343C5.32513 13.0178 5.29801 13.1107 5.11361 13.3773C4.97802 13.5694 4.91836 13.712 4.93463 13.7925C4.97259 13.9413 4.82615 14.1211 4.67972 14.1211C4.62005 14.1211 4.58751 14.1458 4.60378 14.183C4.65802 14.2822 5.0431 14.2574 5.11903 14.152C5.157 14.1025 5.22208 14.0591 5.26547 14.0591C5.30344 14.0591 5.35225 14.0095 5.37395 13.9475C5.39022 13.8917 5.4553 13.7182 5.51496 13.5694L5.62344 13.2967L5.80784 13.7368C5.94343 14.0591 6.10614 14.307 6.43699 14.6913C6.68105 14.9764 6.96308 15.3421 7.06071 15.5157C7.23969 15.8318 7.39698 16.3215 7.39698 16.588C7.39698 16.8235 7.5163 16.7182 7.70071 16.3153C7.89596 15.8876 8.0207 15.7946 8.44375 15.7946C8.7312 15.7946 8.7529 15.807 8.7529 15.9372C8.7529 16.0115 8.70409 16.1231 8.64443 16.1851C8.58477 16.2409 8.53595 16.3586 8.53595 16.4454C8.53595 16.5322 8.49256 16.6624 8.4329 16.7305C8.37867 16.7987 8.31901 16.9661 8.29731 17.0962C8.27562 17.2698 8.21053 17.3876 8.04782 17.5487C7.73867 17.8524 7.59223 17.8648 7.03359 17.6603C6.29597 17.3814 6.23089 17.3752 6.12784 17.5425C6.00852 17.7347 6.01936 17.7595 6.20377 17.7285C6.29597 17.7161 6.36648 17.7285 6.36648 17.7657C6.36648 17.8029 6.38275 17.871 6.39902 17.9268C6.42614 18.0074 6.3936 18.026 6.25801 18.026C5.99767 18.026 5.7753 18.1872 5.76988 18.3793C5.76988 18.4351 5.80784 18.4413 5.90004 18.3979C5.9814 18.3669 6.10614 18.3669 6.23631 18.4041L6.43699 18.4723L6.29597 18.6024C6.1658 18.7264 6.00852 19.0673 6.05733 19.1231C6.06818 19.1355 6.14411 19.0859 6.22546 19.0115C6.33394 18.9124 6.40987 18.8938 6.51834 18.9248C6.80037 19.0115 7.07698 18.9743 7.25596 18.8194C7.38071 18.714 7.49461 18.6768 7.7224 18.6768C7.88511 18.6706 8.09663 18.6334 8.18341 18.59C8.32985 18.5157 8.36782 18.5219 8.60646 18.6706C8.87764 18.8442 9.08917 18.869 9.32781 18.7698C9.43628 18.7202 9.50137 18.7264 9.59899 18.8008C9.71831 18.8876 9.72916 18.8876 9.72916 18.7884C9.72374 18.5281 9.43628 18.3235 8.959 18.2491C8.65527 18.1996 8.639 18.1376 8.82883 17.6851C8.9373 17.4186 9.8756 16.2285 9.97323 16.2285C9.9895 16.2285 10.0003 16.2595 10.0003 16.2967C10.0003 16.3339 10.0654 16.5322 10.1414 16.7305C10.2932 17.1148 10.3854 17.1396 10.4668 16.8297C10.5915 16.3401 10.8031 16.1045 11.1122 16.1045C11.2695 16.1045 11.698 15.8876 11.7956 15.7574C11.8336 15.7078 11.9583 15.6706 12.0939 15.6706C12.3217 15.6706 12.3325 15.6768 12.3325 15.8566C12.3325 15.9744 12.3759 16.0921 12.4573 16.1665C12.5224 16.2347 12.6851 16.402 12.8152 16.5384C12.9996 16.7305 13.1135 16.7925 13.3142 16.8235C13.4552 16.8483 13.6125 16.9103 13.6559 16.9661C13.7318 17.0591 13.7264 17.0839 13.6179 17.2078C13.3251 17.5301 13.2546 17.5735 12.8966 17.6479C12.4627 17.7409 12.3163 17.6913 11.942 17.307C11.7685 17.1272 11.7197 17.1086 11.5081 17.1396C11.3834 17.1582 11.2207 17.214 11.1556 17.2574C11.0146 17.3566 10.982 17.5673 11.1122 17.5053C11.1556 17.4867 11.2261 17.4496 11.2695 17.431C11.3129 17.4124 11.3725 17.4496 11.4051 17.5177C11.4376 17.5859 11.5841 17.6913 11.7305 17.7471C11.8769 17.8029 12.0288 17.8896 12.0613 17.9392C12.121 18.0136 12.0993 18.026 11.942 18.026C11.839 18.026 11.7088 17.9826 11.6491 17.933C11.4376 17.7471 10.8464 17.871 10.7488 18.1252C10.6729 18.3111 10.7163 18.3669 10.8519 18.2677C10.9441 18.2057 10.9875 18.2181 11.1285 18.3359C11.2858 18.4661 11.2912 18.4909 11.2207 18.5838C11.1773 18.6396 11.1393 18.7636 11.1393 18.8566V19.0239L11.2966 18.8876C11.4159 18.7884 11.4756 18.7698 11.5569 18.8256C11.6383 18.869 11.6925 18.8628 11.7847 18.7946C11.9854 18.6334 12.2295 18.5776 12.8207 18.5591C13.363 18.5405 13.401 18.5467 13.6722 18.7202C13.9325 18.8876 13.9651 18.8938 14.1712 18.8256C14.361 18.7636 14.4044 18.7636 14.4912 18.8504C14.6105 18.9743 14.6647 18.9372 14.6267 18.7636C14.5942 18.6272 14.3339 18.4537 13.9813 18.3359L13.759 18.2615L14.1766 18.0198C14.5888 17.7843 14.9847 17.4062 15.2722 16.9723L15.4186 16.7615L15.7115 16.8669C16.0911 17.0033 16.1291 17.0033 16.1291 16.8235C16.1291 16.6438 15.885 16.2905 15.7603 16.2905C15.7061 16.2905 15.4728 16.2099 15.2342 16.1169C14.6051 15.8628 14.4966 15.5529 14.8817 15.1066C15.1366 14.8091 15.2505 14.8153 15.5813 15.1128C15.7874 15.3049 16.1183 15.4165 16.6172 15.4661C16.7799 15.4785 16.9644 15.5157 17.024 15.5467C17.0837 15.5777 17.3006 15.6149 17.5067 15.6272C18.0545 15.6706 18.1521 15.776 18.2064 16.3772C18.2443 16.7925 18.2389 16.8855 18.1467 17.0839C18.0925 17.2078 18.0545 17.3442 18.0654 17.3876C18.1033 17.5115 17.9786 17.7099 17.7996 17.8153C17.5555 17.9578 17.3169 17.8834 16.9481 17.5301C16.6606 17.2574 16.601 17.2264 16.4437 17.2574C16.2105 17.307 16.0206 17.4434 16.0206 17.5611C16.0206 17.6293 16.0586 17.6479 16.1616 17.6169C16.2593 17.5859 16.3244 17.6107 16.4057 17.7099C16.4816 17.7967 16.4925 17.84 16.4383 17.84C16.4003 17.84 16.2538 17.9206 16.1128 18.026C15.9122 18.1686 15.8579 18.2429 15.8579 18.3731C15.8579 18.5281 15.8633 18.5343 15.9555 18.4475C16.0152 18.3855 16.1833 18.3545 16.4708 18.3483L16.8938 18.3421L16.6606 18.5343C16.3786 18.7636 16.2918 18.8814 16.2918 19.0363C16.2918 19.1479 16.3027 19.1479 16.4166 19.0673C16.4816 19.0177 16.6389 18.9619 16.7691 18.9372C16.8993 18.9186 17.0457 18.8628 17.0999 18.807C17.2952 18.6086 17.5284 18.5591 17.7562 18.6768C17.9515 18.776 17.984 18.776 18.1901 18.683C18.4884 18.5467 18.6728 18.5591 18.9548 18.7326C19.1338 18.838 19.2315 18.8628 19.3182 18.8256C19.405 18.7884 19.4972 18.8008 19.6057 18.8628C19.7304 18.9372 19.763 18.9434 19.763 18.8752C19.763 18.7078 19.5786 18.5095 19.2477 18.3421C19.047 18.2367 18.8952 18.1128 18.8735 18.0446C18.8518 17.9764 18.8898 17.6727 18.9548 17.369C19.047 16.9289 19.0633 16.681 19.047 16.1541L19.0254 15.4971L19.2152 15.6458C19.4159 15.8008 19.6762 15.8442 19.7359 15.7326C19.8118 15.5901 19.1501 15.0384 18.201 14.4558L17.9081 14.2822L18.3474 14.152C19.264 13.8731 19.9636 13.3277 20.2294 12.6768C20.3758 12.3173 20.3921 12.0818 20.2999 11.6603C20.2457 11.4186 20.2511 11.3256 20.3596 10.9227L20.4897 10.464L20.6796 10.6748C20.788 10.7864 20.9562 10.9289 21.0592 10.9909C21.2382 11.0901 21.2436 11.0901 21.2057 10.9847C21.0755 10.6004 20.9996 10.0054 20.9725 9.12521L20.9399 8.13347L20.4681 8.72231C20.2023 9.05083 19.7901 9.54049 19.5514 9.81322C19.3074 10.0859 19.1121 10.3277 19.1121 10.3525C19.1121 10.3835 19.3074 10.4021 19.546 10.4021H19.9799L19.8877 10.619C19.7847 10.8669 19.763 10.8731 19.4159 10.7368C19.0904 10.6066 18.6132 10.6438 18.3203 10.8111C17.7128 11.1707 17.7128 12.0074 18.3203 12.3669C18.4938 12.4723 18.982 12.5033 19.2315 12.4289C19.3508 12.3917 19.3725 12.4041 19.3508 12.4785C19.2477 12.7822 18.2715 12.9186 17.5664 12.7264C17.3603 12.6706 16.9264 12.6087 16.6064 12.5901C16.281 12.5715 16.0206 12.5343 16.0206 12.5095C16.0206 12.4413 16.2538 12.2182 16.4545 12.1004C16.5738 12.0322 16.7691 11.9888 16.9806 11.9888C17.1705 11.9826 17.3223 11.9764 17.3223 11.9702C17.3223 11.964 17.2627 11.8277 17.1867 11.6665C17.1108 11.5054 17.0511 11.276 17.0511 11.1521C17.0511 10.588 17.5284 9.92479 18.1738 9.58388L18.5264 9.39173L18.3203 9.27396C18.0762 9.1438 17.9732 9.00744 17.9732 8.82149C17.9732 8.58595 18.2823 8.12727 18.727 7.69339C18.9657 7.46405 19.1555 7.26571 19.1447 7.25331C19.1338 7.24711 18.6023 7.47645 17.9677 7.77397C16.666 8.36901 16.3352 8.45579 16.1562 8.23265C16.0098 8.0467 16.0152 7.55703 16.1725 7.16034C16.2322 6.99918 16.2701 6.86901 16.2484 6.87521C16.2267 6.87521 16.0044 7.01777 15.7494 7.18513ZM8.66612 8.35041C8.639 8.3876 8.48172 8.22645 8.48172 8.16446C8.48172 8.13347 8.5251 8.15827 8.57934 8.21405C8.63358 8.27603 8.67154 8.33802 8.66612 8.35041ZM8.66612 8.79669C8.9373 8.93925 8.87222 9.01983 8.44917 9.06942C8.00443 9.11281 7.91223 9.08801 8.11291 8.97025C8.17799 8.93306 8.25934 8.85868 8.28104 8.81529C8.33528 8.70992 8.48714 8.70372 8.66612 8.79669ZM19.226 11.5797C19.3508 11.6975 19.3508 11.7099 19.2586 11.7905C19.0959 11.9392 18.7921 11.9702 18.6457 11.8587C18.5752 11.8091 18.5155 11.7223 18.5155 11.6727C18.5155 11.4434 19.0199 11.3752 19.226 11.5797Z" fill="#D80027"/>
</g>
<circle cx="13.25" cy="13" r="12.25" stroke="#808080" stroke-width="1.02083"/>
</svg>
