<svg width="26" height="26" fill="none" xmlns="http://www.w3.org/2000/svg"><mask id="a" style="mask-type:alpha" maskUnits="userSpaceOnUse" x="1" y="1" width="24" height="24"><circle cx="13" cy="13" r="11.5" fill="#D9D9D9" stroke="#000"/></mask><g mask="url(#a)"><path d="M9.844 1H1.002v1.873l8.842 5.793V1zM1.002 7.403v2.44h3.723l-3.723-2.44zm0 8.755v2.44l3.723-2.44H1.002zM25.001 2.873V1H16.16v7.666l8.842-5.793zm.001 15.724v-2.439H21.28l3.723 2.44zm-8.842-1.263V25H25v-1.873l-8.842-5.793zm8.842-7.492V7.403l-3.723 2.44h3.723zm-24 13.285V25h8.842v-7.666l-8.842 5.793z" fill="#0052B4"/><path d="M25.002 23.127v-1.872l-7.854-5.097h2.32l5.534 3.591v-1.152l-3.723-2.44h3.723v-1.262H14.897V25h1.263v-7.666l8.842 5.793zm-24-8.232v1.263h3.723l-3.723 2.439v1.772l6.487-4.211h2.32l-8.807 5.717v1.252l8.842-5.793V25h1.263V14.895H1.002zM11.107 1H9.844v7.666L1.002 2.873v2.05l7.579 4.92H6.26L1 6.427v.975l3.724 2.44H1.002v1.262h10.105V1zm13.895 10.105V9.842h-3.723l3.723-2.439V5.608L18.48 9.842h-2.32l8.842-5.74v-1.23L16.16 8.667V1h-1.264v10.105h10.106z" fill="#F5F5F5"/><path d="M25.002 14.895v-3.79H14.897V1h-3.79v10.105H1.002v3.79h10.105V25h3.79V14.895h10.105z" fill="#D80027"/><path d="M7.49 16.158L1.001 20.37v1.506l8.807-5.717H7.49zm9.66 0l7.853 5.098V19.75l-5.534-3.592h-2.32zM8.58 9.842l-7.578-4.92v1.506l5.259 3.414h2.32zm9.9 0L25 5.608V4.102l-8.842 5.74h2.32z" fill="#D80027"/></g><circle cx="13" cy="13" r="12" stroke="gray"/></svg>