<svg width="37" height="37" viewBox="0 0 37 37" fill="#004A36" xmlns="http://www.w3.org/2000/svg">
<g id="hamburger">
<path id="Vector" d="M35.15 20.35H1.85C1.35935 20.35 0.888795 20.155 0.541852 19.8081C0.19491 19.4612 0 18.9906 0 18.5C0 18.0093 0.19491 17.5387 0.541852 17.1918C0.888795 16.8449 1.35935 16.65 1.85 16.65H35.15C35.6406 16.65 36.1113 16.8449 36.4581 17.1918C36.805 17.5387 37 18.0093 37 18.5C37 18.9906 36.805 19.4612 36.4581 19.8081C36.1113 20.155 35.6406 20.35 35.15 20.35ZM35.15 7.39995H1.85C1.35935 7.39995 0.888795 7.20503 0.541852 6.8581C0.19491 6.51116 0 6.04061 0 5.54995C0 5.05929 0.19491 4.58875 0.541852 4.2418C0.888795 3.89487 1.35935 3.69995 1.85 3.69995H35.15C35.6406 3.69995 36.1113 3.89487 36.4581 4.2418C36.805 4.58875 37 5.05929 37 5.54995C37 6.04061 36.805 6.51116 36.4581 6.8581C36.1113 7.20503 35.6406 7.39995 35.15 7.39995ZM35.15 33.2999H1.85C1.35935 33.2999 0.888795 33.105 0.541852 32.7581C0.19491 32.4112 0 31.9406 0 31.4499C0 30.9593 0.19491 30.4887 0.541852 30.1418C0.888795 29.7949 1.35935 29.5999 1.85 29.5999H35.15C35.6406 29.5999 36.1113 29.7949 36.4581 30.1418C36.805 30.4887 37 30.9593 37 31.4499C37 31.9406 36.805 32.4112 36.4581 32.7581C36.1113 33.105 35.6406 33.2999 35.15 33.2999Z"/>
</g>
</svg>
