<svg width="48" height="49" fill="none" xmlns="http://www.w3.org/2000/svg"><g clip-path="url(#clip0_1300_677)"><rect y=".333" width="48" height="48" rx="8" fill="#004A36"/><path d="M32.131 6.333H15.87C10.427 6.333 6 10.76 6 16.202v16.262c0 5.442 4.427 9.869 9.869 9.869H32.13c5.442 0 9.869-4.427 9.869-9.869V16.202c0-5.442-4.427-9.869-9.869-9.869zM24 34.207c-5.445 0-9.874-4.43-9.874-9.874 0-5.445 4.43-9.874 9.874-9.874 5.445 0 9.874 4.43 9.874 9.874 0 5.445-4.43 9.874-9.874 9.874zm10.465-17.339c-1.655 0-3-1.345-3-3 0-1.654 1.345-3 3-3 1.654 0 3 1.346 3 3 0 1.655-1.346 3-3 3z" fill="#fff"/><path d="M34.465 12.994a.875.875 0 000 1.748.875.875 0 000-1.748zm-10.463 3.591c-4.273 0-7.749 3.476-7.749 7.749 0 4.272 3.476 7.748 7.748 7.748 4.273 0 7.749-3.476 7.749-7.748 0-4.273-3.476-7.749-7.748-7.749z" fill="#fff"/></g><defs><clipPath id="clip0_1300_677"><path fill="#fff" transform="translate(0 .333)" d="M0 0h48v48H0z"/></clipPath></defs></svg>