<svg width="48" height="48" fill="none" xmlns="http://www.w3.org/2000/svg"><g clip-path="url(#clip0_3251_4359)"><rect width="48" height="48" rx="8" fill="#004A36"/><path d="M42 42V28.815c0-6.48-1.395-11.43-8.955-11.43-3.626 0-6.05 1.96-7.05 3.84a.056.056 0 01-.105-.026V18.97a1 1 0 00-1-1h-5.155a1 1 0 00-1 1V41a1 1 0 001 1h5.47a1 1 0 001-1V30.075c0-3.15.585-6.165 4.455-6.165 3.825 0 3.87 3.555 3.87 6.345v10.7a1 1 0 001 1h6.425c.025 0 .045.02.045.045zM6.585 18.97a1 1 0 011-1h5.47a1 1 0 011 1V41a1 1 0 01-1 1h-5.47a1 1 0 01-1-1V18.97zM10.32 6A4.321 4.321 0 006 10.32c0 2.385 1.935 4.365 4.32 4.365 2.385 0 4.32-1.98 4.32-4.365A4.321 4.321 0 0010.32 6z" fill="#fff"/></g><defs><clipPath id="clip0_3251_4359"><path fill="#fff" d="M0 0h48v48H0z"/></clipPath></defs></svg>