<svg width="40" height="35" fill="currentColor" xmlns="http://www.w3.org/2000/svg"><path d="M39.462 6.95a1.172 1.172 0 00-1.119-.082l-6.939 3.145v24.605l7.906-3.575c.42-.19.689-.607.689-1.067V7.936c0-.399-.203-.77-.537-.985zM.686 10.141c-.418.19-.686.607-.686 1.067v22.04a1.172 1.172 0 001.657 1.067l6.937-3.154V6.541l-7.908 3.6zm28.198.19a9.47 9.47 0 01-.54 1.302c-.02.04-.043.08-.068.118l-6.584 10.021h.912a1.172 1.172 0 010 2.344h-5.206a1.172 1.172 0 110-2.344h.911l-6.583-10.02a1.226 1.226 0 01-.069-.12 9.428 9.428 0 01-.718-1.91V30.8l18.124 4.003V10.371l-.179-.04z"/><path d="M25.712 4.05a6.657 6.657 0 00-5.71-3.187A6.658 6.658 0 0014.29 4.05a6.617 6.617 0 00-.3 6.44L20 19.638l6.01-9.149a6.617 6.617 0 00-.3-6.439zm-5.71 6.81a3.402 3.402 0 01-3.407-3.397 3.402 3.402 0 013.406-3.397 3.402 3.402 0 013.406 3.397 3.402 3.402 0 01-3.406 3.397z"/></svg>