<svg width="48" height="48" fill="none" xmlns="http://www.w3.org/2000/svg"><g clip-path="url(#clip0_3251_4351)"><rect width="48" height="48" rx="8" fill="#004A36"/><path d="M23.977 6.045C14.045 6.045 6 13.505 6 22.719c0 5.258 2.607 9.932 6.697 12.989l.09 5.842c0 .315.36.495.629.36l5.618-3.146c1.573.404 3.236.629 4.989.629 9.932 0 17.977-7.46 17.977-16.674 0-9.214-8.135-16.674-18.023-16.674zm1.304 22.112l-3.82-4a.756.756 0 00-.854-.135l-6.742 3.64c-.27.136-.494-.18-.314-.404l7.955-8.45a.625.625 0 01.854 0l3.82 4.09c.224.225.584.315.854.135l6.606-3.595c.27-.135.495.18.315.404l-7.82 8.315a.625.625 0 01-.854 0z" fill="#fff"/></g><defs><clipPath id="clip0_3251_4351"><path fill="#fff" d="M0 0h48v48H0z"/></clipPath></defs></svg>