<svg width="26" height="26" fill="#fff" xmlns="http://www.w3.org/2000/svg"><path d="M25.066 22.971l-4.806-4.805a10.916 10.916 0 002.256-6.658c0-2.94-1.146-5.705-3.225-7.784A10.94 10.94 0 0011.505.5 10.94 10.94 0 003.72 3.724C-.573 8.016-.573 15 3.72 19.292a10.939 10.939 0 007.785 3.224c2.44 0 4.753-.799 6.66-2.255l4.806 4.805a1.477 1.477 0 002.095 0 1.48 1.48 0 000-2.095zM5.815 17.197c-3.137-3.137-3.137-8.24 0-11.378a7.997 7.997 0 015.69-2.356c2.15 0 4.17.837 5.69 2.356a7.992 7.992 0 012.357 5.689c0 2.15-.837 4.17-2.357 5.689a7.995 7.995 0 01-5.69 2.356c-2.15 0-4.17-.837-5.69-2.356z"/></svg>