<svg width="48" height="49" fill="none" xmlns="http://www.w3.org/2000/svg"><g clip-path="url(#clip0_1300_683)"><rect y=".333" width="48" height="48" rx="8" fill="#004A36"/><g clip-path="url(#clip1_1300_683)"><mask id="a" style="mask-type:luminance" maskUnits="userSpaceOnUse" x="6" y="6" width="37" height="37"><path d="M42.002 6.334h-36v36h36v-36z" fill="#fff"/></mask><g mask="url(#a)"><path d="M27.66 21.909a.514.514 0 01.034-.636L40.078 7.188a.514.514 0 00-.387-.854h-1.806a.514.514 0 00-.386.175l-11.051 12.57a.514.514 0 01-.808-.044L16.875 6.553a.514.514 0 00-.42-.219H6.992a.514.514 0 00-.421.81l13.253 18.873a.514.514 0 01-.035.636L6.753 41.48a.514.514 0 00.386.854h1.806a.514.514 0 00.387-.175l11.703-13.311a.514.514 0 01.808.044l9.286 13.223a.514.514 0 00.42.219h9.463c.417 0 .66-.47.421-.81L27.66 21.91zm-4.583 4.616l-1.425-1.993L10.903 9.487a.514.514 0 01.419-.814h3.614c.166 0 .322.08.418.216l8.99 12.583 1.424 1.993 11.305 15.822c.243.34 0 .814-.418.814H33.04a.514.514 0 01-.419-.216l-9.545-13.36z" fill="#fff"/></g></g></g><defs><clipPath id="clip0_1300_683"><path fill="#fff" transform="translate(0 .333)" d="M0 0h48v48H0z"/></clipPath><clipPath id="clip1_1300_683"><path fill="#fff" transform="translate(6 6.333)" d="M0 0h36v36H0z"/></clipPath></defs></svg>