<svg width="48" height="48" fill="none" xmlns="http://www.w3.org/2000/svg"><g clip-path="url(#clip0_3251_4375)"><rect width="48" height="48" rx="8" fill="#004A36"/><path d="M24 6C14.055 6 6 14.055 6 24c0 3.96 1.26 7.605 3.42 10.575L6.945 41.1l7.155-2.07C16.935 40.92 20.355 42 24 42c9.945 0 18-8.055 18-18S33.945 6 24 6zm9.585 25.47l-1.935 1.89c-2.025 2.025-7.38-.18-12.105-4.95-4.725-4.725-6.84-10.08-4.95-12.06l1.935-1.935c.72-.72 1.935-.72 2.7 0l2.835 2.835c.99.99.585 2.7-.72 3.105-.9.315-1.53 1.305-1.215 2.205.495 2.115 3.24 4.725 5.265 5.22.9.225 1.935-.315 2.205-1.215.405-1.305 2.115-1.71 3.105-.72l2.835 2.835c.72.765.72 1.98.045 2.79z" fill="#fff"/></g><defs><clipPath id="clip0_3251_4375"><path fill="#fff" d="M0 0h48v48H0z"/></clipPath></defs></svg>