<svg width="48" height="49" fill="none" xmlns="http://www.w3.org/2000/svg"><g clip-path="url(#clip0_1300_680)"><rect y=".333" width="48" height="48" rx="8" fill="#004A36"/><path d="M40.597 13.84c-1.3-1.544-3.699-2.175-8.28-2.175H15.683c-4.687 0-7.127.671-8.422 2.316C6 15.584 6 17.947 6 21.217v6.233C6 33.785 7.498 37 15.684 37h16.632c3.974 0 6.175-.555 7.6-1.918C41.376 33.684 42 31.402 42 27.45v-6.233c0-3.448-.098-5.825-1.403-7.377zM29.112 25.194L21.56 29.14a1.16 1.16 0 01-1.699-1.03v-7.869a1.161 1.161 0 011.697-1.03l7.552 3.922a1.162 1.162 0 01.003 2.06z" fill="#fff"/></g><defs><clipPath id="clip0_1300_680"><path fill="#fff" transform="translate(0 .333)" d="M0 0h48v48H0z"/></clipPath></defs></svg>