<svg id="Layer_1" data-name="Layer 1" xmlns="http://www.w3.org/2000/svg" viewBox="0 0 500 500"><defs><style>.cls-1{fill:#26130f;}.cls-2{fill:#fff;}.cls-3{fill:#e04215;}.cls-4{fill:#3f1e19;}.cls-5{fill:#ffb345;}.cls-6{fill:none;stroke:#fff;stroke-linecap:round;stroke-miterlimit:10;}.cls-7{fill:#9acc42;}.cls-8{fill:#75af22;}</style></defs><title>ITALY</title><path class="cls-1" d="M467.78,234.39A216,216,0,1,1,404.52,81.66,215.32,215.32,0,0,1,467.78,234.39Z"/><path class="cls-2" d="M435.5,234.39a183.72,183.72,0,1,1-53.81-129.9A183.14,183.14,0,0,1,435.5,234.39Z"/><path class="cls-1" d="M412,233.49A164.77,164.77,0,1,1,363.78,117,164.25,164.25,0,0,1,412,233.49Z"/><path class="cls-1" d="M378.44,133.77A166,166,0,0,0,363.78,117c-.8-.8-1.61-1.59-2.42-2.37A135.83,135.83,0,0,0,378.44,133.77Z"/><path class="cls-3" d="M360.78,117.55a161.36,161.36,0,0,0-59.6-36.29,1.49,1.49,0,0,0-.59-.09c-18.67.69-38.61,5.27-55.82,5.76-3.93,0-8.78-5.44-14.54-6.26l-2.85,2a3.87,3.87,0,0,0-.06.46,1.54,1.54,0,0,0,1.55,1.64h0a1.53,1.53,0,0,1-1.55-1.63v0a1.54,1.54,0,0,0-2-1.58c-11.29,3.24-21.61,10.24-29.53,18.16-13.77,13.77-23,31-32.72,47.63-9.41,16.08-17.37,32.35-36.2,38.42-7.8,2.52-16.09,4.28-22.73,9.09-7,5-11.42,13-13.77,21.32-8.88,31.23,1.06,65.94,15.83,93.74a.51.51,0,0,0,.09.16,119.7,119.7,0,0,0,14,17.37c16,18.09,44.69,13.83,64.91,21.28C195.82,353,199,366.8,206.46,376.38c14.89,20.2,45.7,20.22,65.92,5.36a.94.94,0,0,0,.12-.09c12.68-10.6,14.84-25.42,24.33-38.15l.18-.21c2.13-2.09,5.26-4.16,7.35-4.16,30.86-2.12,68.11,1.07,76.62-37.24A274.36,274.36,0,0,1,398.42,249a98.89,98.89,0,0,0,7.78-52.86c-4.15-31.62-27.56-53.74-45.23-78.35Z"/><path class="cls-1" d="M226.15,77l1-.22-.45,0A.82.82,0,0,0,226.15,77Z"/><path class="cls-4" d="M361.39,284.35a16.63,16.63,0,1,0,11.75,4.87A16.53,16.53,0,0,0,361.39,284.35Zm0,24.17a7.55,7.55,0,1,1,5.35-2.21A7.53,7.53,0,0,1,361.39,308.52Z"/><path class="cls-4" d="M186.4,236.69a16.61,16.61,0,1,0,11.75,4.87A16.56,16.56,0,0,0,186.4,236.69Zm0,24.17a7.55,7.55,0,1,1,5.34-2.21A7.53,7.53,0,0,1,186.4,260.86Z"/><path class="cls-4" d="M124.68,182.63a16.63,16.63,0,1,0,11.75,4.87A16.56,16.56,0,0,0,124.68,182.63Zm0,24.17a7.55,7.55,0,1,1,5.34-2.21A7.53,7.53,0,0,1,124.68,206.8Z"/><path class="cls-4" d="M256.72,336.68a16.59,16.59,0,1,0,11.75,4.86A16.57,16.57,0,0,0,256.72,336.68Zm0,24.16a7.55,7.55,0,1,1,0-15.1,7.55,7.55,0,1,1,0,15.1Z"/><path class="cls-4" d="M238.22,215.74A16.63,16.63,0,1,0,250,220.61,16.56,16.56,0,0,0,238.22,215.74Zm0,24.17a7.55,7.55,0,1,1,5.34-2.21A7.53,7.53,0,0,1,238.22,239.91Z"/><path class="cls-4" d="M290.15,158.83a16.63,16.63,0,1,0,11.75,4.87A16.56,16.56,0,0,0,290.15,158.83Zm0,24.17a7.55,7.55,0,1,1,5.34-2.21A7.53,7.53,0,0,1,290.15,183Z"/><path class="cls-4" d="M354.89,204.36a16.63,16.63,0,1,0,11.74,4.87A16.54,16.54,0,0,0,354.89,204.36Zm0,24.17a7.55,7.55,0,1,1,5.34-2.21A7.53,7.53,0,0,1,354.89,228.53Z"/><path class="cls-4" d="M222.14,91.58a16.59,16.59,0,1,0,11.75,4.86A16.59,16.59,0,0,0,222.14,91.58Zm0,24.17a7.56,7.56,0,1,1,5.34-2.22A7.5,7.5,0,0,1,222.14,115.75Z"/><path class="cls-5" d="M293.33,64.69h0a1.45,1.45,0,0,0-1.46-1.45h-1.78a66.86,66.86,0,0,0-47.28,19.58h0a1.44,1.44,0,0,1-2.05,0h0a66.84,66.84,0,0,0-47.27-19.58H191.7a1.45,1.45,0,0,0-1.45,1.45h0a1.46,1.46,0,0,0,1.45,1.46h3a1.45,1.45,0,0,1,1.45,1.45v2.86a1.45,1.45,0,0,1-1.45,1.46h-3a1.45,1.45,0,0,0-1.45,1.45v2.85a1.45,1.45,0,0,0,1.45,1.45h3a1.45,1.45,0,0,1,1.45,1.45V82a1.45,1.45,0,0,1-1.45,1.45h-3a1.45,1.45,0,0,0-1.45,1.46v2.84a1.45,1.45,0,0,0,1.45,1.45h3a1.45,1.45,0,0,1,1.45,1.46v2.86A1.45,1.45,0,0,1,194.71,95h-3a1.45,1.45,0,0,0-1.45,1.45v2.84a1.45,1.45,0,0,0,1.45,1.46h3a1.45,1.45,0,0,1,1.45,1.45V105a1.45,1.45,0,0,1-1.45,1.45h-3a1.45,1.45,0,0,0-1.45,1.46h0a1.45,1.45,0,0,0,1.45,1.45h1.79a66.84,66.84,0,0,0,47.27-19.58h0a1.44,1.44,0,0,1,2.05,0h0a66.86,66.86,0,0,0,47.28,19.58h1.78a1.45,1.45,0,0,0,1.46-1.45h0a1.46,1.46,0,0,0-1.46-1.46h-3a1.45,1.45,0,0,1-1.45-1.45v-2.87a1.45,1.45,0,0,1,1.45-1.45h3a1.46,1.46,0,0,0,1.46-1.46V96.42A1.45,1.45,0,0,0,291.87,95h-3a1.45,1.45,0,0,1-1.45-1.46V90.65a1.45,1.45,0,0,1,1.45-1.46h3a1.45,1.45,0,0,0,1.46-1.45V84.9a1.46,1.46,0,0,0-1.46-1.46h-3A1.45,1.45,0,0,1,287.41,82V79.12a1.45,1.45,0,0,1,1.45-1.45h3a1.45,1.45,0,0,0,1.46-1.45V73.37a1.45,1.45,0,0,0-1.46-1.45h-3a1.45,1.45,0,0,1-1.45-1.46V67.6a1.45,1.45,0,0,1,1.45-1.45h3A1.46,1.46,0,0,0,293.33,64.69Z"/><path class="cls-6" d="M202.19,74.84s21.06.45,35.63,9"/><path class="cls-6" d="M202.19,97.8s21.06-.45,35.63-9"/><line class="cls-6" x1="206.04" y1="86.32" x2="237.82" y2="86.32"/><path class="cls-6" d="M281.38,74.84s-21.06.45-35.62,9"/><path class="cls-6" d="M281.38,97.8s-21.06-.45-35.62-9"/><line class="cls-6" x1="277.53" y1="86.32" x2="245.76" y2="86.32"/><path class="cls-5" d="M169.64,93.05h0a1.45,1.45,0,0,0-2,.52l-.91,1.54a66.85,66.85,0,0,0-7,50.68h0a1.45,1.45,0,0,1-1,1.77h0a66.86,66.86,0,0,0-40.81,30.87L117,180a1.45,1.45,0,0,0,.51,2h0a1.45,1.45,0,0,0,2-.52l1.53-2.59a1.44,1.44,0,0,1,2-.52l2.47,1.45a1.45,1.45,0,0,1,.51,2l-1.52,2.59a1.46,1.46,0,0,0,.52,2l2.45,1.44a1.45,1.45,0,0,0,2-.52l1.53-2.59a1.45,1.45,0,0,1,2-.52l2.47,1.45a1.45,1.45,0,0,1,.51,2l-1.52,2.59a1.46,1.46,0,0,0,.52,2l2.45,1.44a1.44,1.44,0,0,0,2-.52l1.52-2.59a1.46,1.46,0,0,1,2-.52l2.48,1.45a1.45,1.45,0,0,1,.51,2l-1.52,2.6a1.46,1.46,0,0,0,.52,2l2.45,1.43a1.45,1.45,0,0,0,2-.51l1.52-2.6a1.46,1.46,0,0,1,2-.52l2.48,1.45a1.45,1.45,0,0,1,.51,2l-1.52,2.6a1.46,1.46,0,0,0,.52,2h0a1.46,1.46,0,0,0,2-.52l.9-1.54a66.81,66.81,0,0,0,7-50.68h0a1.46,1.46,0,0,1,1-1.78h0a66.85,66.85,0,0,0,40.81-30.86l.9-1.54a1.45,1.45,0,0,0-.52-2h0a1.46,1.46,0,0,0-2,.52l-1.52,2.59a1.45,1.45,0,0,1-2,.52L199,117.12a1.46,1.46,0,0,1-.52-2l1.53-2.59a1.46,1.46,0,0,0-.52-2L197,109.11a1.44,1.44,0,0,0-2,.52l-1.53,2.59a1.46,1.46,0,0,1-2,.52L189,111.29a1.46,1.46,0,0,1-.52-2l1.53-2.6a1.46,1.46,0,0,0-.52-2l-2.45-1.43a1.45,1.45,0,0,0-2,.51l-1.53,2.6a1.46,1.46,0,0,1-2,.52l-2.47-1.45a1.46,1.46,0,0,1-.52-2l1.53-2.6a1.46,1.46,0,0,0-.52-2l-2.45-1.44a1.46,1.46,0,0,0-2,.52l-1.53,2.6a1.45,1.45,0,0,1-2,.51l-2.47-1.44a1.46,1.46,0,0,1-.52-2l1.53-2.6A1.46,1.46,0,0,0,169.64,93.05Z"/><path class="cls-6" d="M132.27,176.79s11-17.94,25.76-26.19"/><path class="cls-6" d="M152.07,188.41s10.28-18.39,10.3-35.26"/><line class="cls-6" x1="144.12" y1="179.28" x2="160.2" y2="151.87"/><path class="cls-6" d="M172.35,108.49s-10.28,18.39-10.3,35.26"/><path class="cls-6" d="M192.15,120.11s-11.05,17.94-25.76,26.19"/><line class="cls-6" x1="180.3" y1="117.62" x2="164.22" y2="145.03"/><path class="cls-5" d="M313.8,147.17h0a1.44,1.44,0,0,0-2,.52l-.91,1.54a66.85,66.85,0,0,0-7,50.68h0a1.45,1.45,0,0,1-1,1.77h0A66.85,66.85,0,0,0,262,232.54l-.91,1.55a1.46,1.46,0,0,0,.52,2h0a1.46,1.46,0,0,0,2-.52l1.52-2.6a1.46,1.46,0,0,1,2-.52l2.48,1.45a1.45,1.45,0,0,1,.51,2l-1.52,2.6a1.46,1.46,0,0,0,.52,2l2.45,1.44a1.46,1.46,0,0,0,2-.52l1.52-2.6a1.45,1.45,0,0,1,2-.51l2.47,1.45a1.44,1.44,0,0,1,.52,2l-1.52,2.59a1.46,1.46,0,0,0,.52,2l2.45,1.44a1.45,1.45,0,0,0,2-.52l1.52-2.59a1.45,1.45,0,0,1,2-.52l2.47,1.45a1.44,1.44,0,0,1,.52,2l-1.52,2.59a1.45,1.45,0,0,0,.52,2l2.45,1.44a1.45,1.45,0,0,0,2-.52l1.52-2.59a1.46,1.46,0,0,1,2-.52l2.47,1.45a1.45,1.45,0,0,1,.52,2L298.42,256a1.45,1.45,0,0,0,.52,2h0a1.45,1.45,0,0,0,2-.51l.9-1.54a66.84,66.84,0,0,0,7-50.69h0a1.44,1.44,0,0,1,1-1.77h0a66.85,66.85,0,0,0,40.81-30.86l.9-1.54a1.44,1.44,0,0,0-.52-2h0a1.45,1.45,0,0,0-2,.51l-1.52,2.6a1.46,1.46,0,0,1-2,.52l-2.47-1.45a1.46,1.46,0,0,1-.52-2l1.52-2.6a1.45,1.45,0,0,0-.51-2l-2.46-1.44a1.46,1.46,0,0,0-2,.52l-1.52,2.6a1.46,1.46,0,0,1-2,.52l-2.47-1.45a1.46,1.46,0,0,1-.52-2l1.52-2.6a1.45,1.45,0,0,0-.51-2l-2.46-1.44a1.46,1.46,0,0,0-2,.52l-1.52,2.6a1.45,1.45,0,0,1-2,.51l-2.47-1.45a1.46,1.46,0,0,1-.52-2l1.53-2.59a1.46,1.46,0,0,0-.52-2l-2.46-1.44a1.46,1.46,0,0,0-2,.52l-1.52,2.59a1.44,1.44,0,0,1-2,.52l-2.47-1.45a1.46,1.46,0,0,1-.52-2l1.53-2.59A1.46,1.46,0,0,0,313.8,147.17Z"/><path class="cls-6" d="M276.43,230.91s11-17.94,25.76-26.2"/><path class="cls-6" d="M296.23,242.53s10.27-18.4,10.3-35.27"/><line class="cls-6" x1="288.28" y1="233.4" x2="304.36" y2="205.99"/><path class="cls-6" d="M316.5,162.6s-10.27,18.4-10.3,35.27"/><path class="cls-6" d="M336.31,174.22s-11.05,17.94-25.76,26.2"/><line class="cls-6" x1="324.46" y1="171.73" x2="308.38" y2="199.14"/><path class="cls-5" d="M231,254.3h0a1.45,1.45,0,0,0-2,.52l-.9,1.54a66.81,66.81,0,0,0-7,50.68h0a1.45,1.45,0,0,1-1,1.77h0a66.85,66.85,0,0,0-40.81,30.86l-.9,1.55a1.45,1.45,0,0,0,.52,2h0a1.46,1.46,0,0,0,2-.52l1.52-2.6a1.46,1.46,0,0,1,2-.52l2.47,1.45a1.46,1.46,0,0,1,.52,2l-1.53,2.6a1.46,1.46,0,0,0,.52,2l2.45,1.44a1.46,1.46,0,0,0,2-.52l1.53-2.6a1.45,1.45,0,0,1,2-.51l2.47,1.45a1.46,1.46,0,0,1,.52,2l-1.53,2.59a1.46,1.46,0,0,0,.52,2l2.45,1.44a1.45,1.45,0,0,0,2-.52l1.53-2.59a1.44,1.44,0,0,1,2-.52l2.47,1.45a1.46,1.46,0,0,1,.52,2l-1.53,2.59a1.46,1.46,0,0,0,.52,2l2.45,1.44a1.44,1.44,0,0,0,2-.52l1.53-2.59a1.45,1.45,0,0,1,2-.52l2.47,1.45a1.46,1.46,0,0,1,.52,2l-1.53,2.59a1.46,1.46,0,0,0,.52,2h0a1.45,1.45,0,0,0,2-.51L219,363a66.88,66.88,0,0,0,7-50.69h0a1.45,1.45,0,0,1,1-1.77h0a66.85,66.85,0,0,0,40.81-30.86l.9-1.54a1.45,1.45,0,0,0-.51-2h0a1.45,1.45,0,0,0-2,.51l-1.53,2.6a1.46,1.46,0,0,1-2,.52l-2.47-1.45a1.45,1.45,0,0,1-.51-2l1.52-2.6a1.46,1.46,0,0,0-.52-2l-2.45-1.44a1.46,1.46,0,0,0-2,.52l-1.53,2.6a1.46,1.46,0,0,1-2,.52l-2.47-1.45a1.45,1.45,0,0,1-.51-2l1.52-2.6a1.46,1.46,0,0,0-.52-2l-2.45-1.44a1.46,1.46,0,0,0-2,.52l-1.52,2.6a1.45,1.45,0,0,1-2,.51l-2.48-1.45a1.45,1.45,0,0,1-.51-2l1.52-2.59a1.46,1.46,0,0,0-.52-2l-2.45-1.44a1.45,1.45,0,0,0-2,.52L235,261.8a1.45,1.45,0,0,1-2,.52l-2.48-1.45a1.45,1.45,0,0,1-.51-2l1.52-2.59A1.46,1.46,0,0,0,231,254.3Z"/><path class="cls-6" d="M193.61,338s11-17.94,25.76-26.19"/><path class="cls-6" d="M213.42,349.66s10.27-18.4,10.29-35.27"/><line class="cls-6" x1="205.46" y1="340.53" x2="221.54" y2="313.12"/><path class="cls-6" d="M233.69,269.73s-10.28,18.4-10.3,35.27"/><path class="cls-6" d="M253.49,281.35s-11,17.94-25.76,26.2"/><line class="cls-6" x1="241.64" y1="278.86" x2="225.56" y2="306.27"/><path class="cls-5" d="M357.68,299.8h0a1.45,1.45,0,0,0-1.36-1.54l-1.78-.12a66.89,66.89,0,0,0-48.44,16.49h0a1.45,1.45,0,0,1-2.05-.14h0a66.88,66.88,0,0,0-45.91-22.59l-1.78-.12a1.46,1.46,0,0,0-1.55,1.36h0a1.47,1.47,0,0,0,1.36,1.55l3,.19a1.46,1.46,0,0,1,1.36,1.55l-.19,2.85a1.45,1.45,0,0,1-1.54,1.36l-3-.19a1.45,1.45,0,0,0-1.55,1.35l-.18,2.84a1.46,1.46,0,0,0,1.36,1.55l3,.19a1.44,1.44,0,0,1,1.35,1.55l-.18,2.85a1.45,1.45,0,0,1-1.55,1.36l-3-.19a1.45,1.45,0,0,0-1.54,1.35l-.19,2.84a1.47,1.47,0,0,0,1.36,1.55l3,.19a1.46,1.46,0,0,1,1.36,1.55l-.19,2.85a1.45,1.45,0,0,1-1.54,1.36l-3-.19a1.45,1.45,0,0,0-1.55,1.35l-.18,2.84a1.46,1.46,0,0,0,1.36,1.55l3,.19a1.44,1.44,0,0,1,1.35,1.55l-.18,2.85a1.45,1.45,0,0,1-1.55,1.36l-3-.19A1.45,1.45,0,0,0,252,336.3h0a1.45,1.45,0,0,0,1.35,1.55l1.79.11a66.86,66.86,0,0,0,48.44-16.48h0a1.45,1.45,0,0,1,2,.13h0a66.87,66.87,0,0,0,45.91,22.6l1.78.11a1.45,1.45,0,0,0,1.54-1.35h0a1.44,1.44,0,0,0-1.35-1.55l-3-.19a1.46,1.46,0,0,1-1.35-1.55l.18-2.86a1.45,1.45,0,0,1,1.55-1.35l3,.19a1.45,1.45,0,0,0,1.54-1.36l.19-2.83a1.46,1.46,0,0,0-1.36-1.55l-3-.19a1.47,1.47,0,0,1-1.36-1.55l.19-2.86a1.44,1.44,0,0,1,1.54-1.35l3,.19a1.46,1.46,0,0,0,1.55-1.36l.18-2.83a1.44,1.44,0,0,0-1.35-1.55l-3-.19a1.46,1.46,0,0,1-1.35-1.55l.18-2.86a1.45,1.45,0,0,1,1.55-1.35l3,.19a1.45,1.45,0,0,0,1.54-1.36l.19-2.83a1.46,1.46,0,0,0-1.36-1.55l-3-.19a1.47,1.47,0,0,1-1.36-1.55l.19-2.86a1.44,1.44,0,0,1,1.54-1.35l3,.19A1.46,1.46,0,0,0,357.68,299.8Z"/><path class="cls-6" d="M266.08,304s21,1.81,35,11.24"/><path class="cls-6" d="M264.59,327s21.05.92,36.13-6.64"/><line class="cls-6" x1="269.18" y1="315.74" x2="300.89" y2="317.8"/><path class="cls-6" d="M345.1,309.16s-21-.92-36.13,6.64"/><path class="cls-6" d="M343.62,332.07s-21-1.81-35-11.25"/><line class="cls-6" x1="340.52" y1="320.36" x2="308.81" y2="318.31"/><path class="cls-5" d="M217.88,258h0a1.45,1.45,0,0,0-1.36-1.54l-1.78-.12a66.88,66.88,0,0,0-48.44,16.49h0a1.45,1.45,0,0,1-2.05-.13h0a66.85,66.85,0,0,0-45.91-22.6l-1.78-.11a1.45,1.45,0,0,0-1.55,1.35h0a1.46,1.46,0,0,0,1.36,1.55l3,.19a1.46,1.46,0,0,1,1.36,1.55l-.19,2.86a1.45,1.45,0,0,1-1.54,1.35l-3-.19a1.45,1.45,0,0,0-1.55,1.36l-.18,2.83a1.45,1.45,0,0,0,1.35,1.55l3,.19a1.45,1.45,0,0,1,1.35,1.55L119.8,269a1.45,1.45,0,0,1-1.55,1.35l-3-.19a1.45,1.45,0,0,0-1.54,1.36l-.19,2.83a1.46,1.46,0,0,0,1.36,1.55l3,.19a1.46,1.46,0,0,1,1.36,1.55l-.19,2.86a1.44,1.44,0,0,1-1.54,1.35l-3-.19A1.45,1.45,0,0,0,113,283l-.18,2.83a1.45,1.45,0,0,0,1.35,1.55l3,.19a1.45,1.45,0,0,1,1.35,1.55l-.18,2.86a1.45,1.45,0,0,1-1.55,1.35l-3-.19a1.45,1.45,0,0,0-1.54,1.36h0a1.44,1.44,0,0,0,1.35,1.54l1.79.12a66.91,66.91,0,0,0,48.44-16.49h0a1.45,1.45,0,0,1,2,.13h0a66.83,66.83,0,0,0,45.91,22.6l1.78.11a1.44,1.44,0,0,0,1.54-1.35h0a1.45,1.45,0,0,0-1.35-1.55l-3-.19a1.45,1.45,0,0,1-1.35-1.55l.18-2.86a1.45,1.45,0,0,1,1.55-1.35l3,.19a1.45,1.45,0,0,0,1.54-1.36l.19-2.83a1.46,1.46,0,0,0-1.36-1.55l-3-.19a1.46,1.46,0,0,1-1.36-1.55l.19-2.86a1.45,1.45,0,0,1,1.54-1.35l3,.19a1.46,1.46,0,0,0,1.55-1.36l.18-2.83a1.45,1.45,0,0,0-1.35-1.55l-3-.19a1.45,1.45,0,0,1-1.35-1.55L211,272a1.45,1.45,0,0,1,1.55-1.35l3,.19a1.45,1.45,0,0,0,1.54-1.36l.19-2.83a1.46,1.46,0,0,0-1.36-1.55l-3-.19a1.46,1.46,0,0,1-1.36-1.55l.19-2.86a1.44,1.44,0,0,1,1.54-1.35l3,.19A1.46,1.46,0,0,0,217.88,258Z"/><path class="cls-6" d="M126.28,262.25s21,1.81,35,11.25"/><path class="cls-6" d="M124.79,285.16s21,.92,36.13-6.64"/><line class="cls-6" x1="129.37" y1="273.96" x2="161.09" y2="276.01"/><path class="cls-6" d="M205.3,267.37s-21-.92-36.13,6.64"/><path class="cls-6" d="M203.82,290.28s-21-1.81-35-11.25"/><line class="cls-6" x1="200.72" y1="278.58" x2="169.01" y2="276.52"/><path class="cls-5" d="M114.51,259h0a1.45,1.45,0,0,0,1.8-1l.5-1.71a66.9,66.9,0,0,0-5.62-50.86h0a1.45,1.45,0,0,1,.57-2h0a66.85,66.85,0,0,0,32-39.94l.5-1.71a1.46,1.46,0,0,0-1-1.81h0a1.45,1.45,0,0,0-1.8,1l-.84,2.88a1.44,1.44,0,0,1-1.8,1l-2.75-.79a1.46,1.46,0,0,1-1-1.81l.84-2.88a1.47,1.47,0,0,0-1-1.81l-2.74-.79a1.46,1.46,0,0,0-1.8,1l-.84,2.89a1.45,1.45,0,0,1-1.8,1l-2.75-.8a1.45,1.45,0,0,1-1-1.8l.84-2.89a1.45,1.45,0,0,0-1-1.8l-2.73-.79a1.45,1.45,0,0,0-1.8,1l-.84,2.89a1.46,1.46,0,0,1-1.8,1l-2.76-.8a1.47,1.47,0,0,1-1-1.81l.84-2.88a1.46,1.46,0,0,0-1-1.81l-2.73-.79a1.45,1.45,0,0,0-1.8,1l-.84,2.89a1.45,1.45,0,0,1-1.8,1l-2.75-.8a1.45,1.45,0,0,1-1-1.8l.84-2.89a1.45,1.45,0,0,0-1-1.8h0a1.46,1.46,0,0,0-1.8,1l-.5,1.72A66.87,66.87,0,0,0,105,201.46h0a1.46,1.46,0,0,1-.57,2h0a66.83,66.83,0,0,0-32,39.93l-.5,1.72a1.45,1.45,0,0,0,1,1.8h0a1.45,1.45,0,0,0,1.8-1l.84-2.89a1.46,1.46,0,0,1,1.8-1l2.76.8a1.45,1.45,0,0,1,1,1.8l-.84,2.89a1.45,1.45,0,0,0,1,1.8l2.73.79a1.44,1.44,0,0,0,1.8-1l.84-2.88a1.45,1.45,0,0,1,1.8-1l2.75.8a1.46,1.46,0,0,1,1,1.81l-.84,2.88a1.46,1.46,0,0,0,1,1.81l2.73.79a1.46,1.46,0,0,0,1.8-1l.84-2.89a1.45,1.45,0,0,1,1.8-1l2.75.8a1.45,1.45,0,0,1,1,1.8l-.84,2.89a1.45,1.45,0,0,0,1,1.8l2.73.79a1.45,1.45,0,0,0,1.8-1l.84-2.89a1.47,1.47,0,0,1,1.81-1l2.75.8a1.46,1.46,0,0,1,1,1.8l-.84,2.89A1.46,1.46,0,0,0,114.51,259Z"/><path class="cls-6" d="M130.19,168.6s-6.31,20.11-18.55,31.72"/><path class="cls-6" d="M108.14,162.2s-5.45,20.35-1.33,36.71"/><line class="cls-6" x1="118.09" y1="169.1" x2="109.22" y2="199.62"/><path class="cls-6" d="M108.1,244.66s5.44-20.36,1.33-36.72"/><path class="cls-6" d="M86.05,238.25s6.3-20.1,18.54-31.71"/><line class="cls-6" x1="98.15" y1="237.76" x2="107.01" y2="207.24"/><path class="cls-5" d="M284.09,206.42h0a1.46,1.46,0,0,0,.25-2L283.23,203a66.89,66.89,0,0,0-44.61-25.06h0a1.45,1.45,0,0,1-1.27-1.61h0A66.84,66.84,0,0,0,223.53,127l-1.11-1.4a1.46,1.46,0,0,0-2-.25h0a1.46,1.46,0,0,0-.24,2.05l1.86,2.36a1.46,1.46,0,0,1-.25,2l-2.25,1.77a1.45,1.45,0,0,1-2-.24L215.6,131a1.45,1.45,0,0,0-2-.24l-2.24,1.76a1.45,1.45,0,0,0-.24,2l1.86,2.36a1.47,1.47,0,0,1-.25,2.05l-2.25,1.77a1.46,1.46,0,0,1-2-.25l-1.86-2.36a1.46,1.46,0,0,0-2-.25l-2.24,1.76a1.45,1.45,0,0,0-.24,2l1.86,2.37a1.46,1.46,0,0,1-.25,2l-2.25,1.77a1.45,1.45,0,0,1-2-.25l-1.86-2.36a1.45,1.45,0,0,0-2-.24l-2.24,1.75a1.45,1.45,0,0,0-.24,2l1.86,2.37a1.46,1.46,0,0,1-.25,2L192.32,155a1.45,1.45,0,0,1-2-.24l-1.86-2.37a1.45,1.45,0,0,0-2-.24h0a1.46,1.46,0,0,0-.25,2l1.11,1.4a66.81,66.81,0,0,0,44.61,25.06h0a1.46,1.46,0,0,1,1.27,1.62h0a66.8,66.8,0,0,0,13.82,49.26l1.11,1.41a1.45,1.45,0,0,0,2,.24h0a1.45,1.45,0,0,0,.24-2l-1.86-2.36a1.46,1.46,0,0,1,.25-2l2.25-1.78a1.46,1.46,0,0,1,2,.25l1.86,2.36a1.46,1.46,0,0,0,2,.25l2.24-1.76a1.45,1.45,0,0,0,.24-2l-1.86-2.37a1.46,1.46,0,0,1,.25-2l2.25-1.77a1.45,1.45,0,0,1,2,.25l1.86,2.36a1.46,1.46,0,0,0,2,.25l2.24-1.76a1.45,1.45,0,0,0,.24-2l-1.86-2.37a1.46,1.46,0,0,1,.25-2l2.25-1.77a1.45,1.45,0,0,1,2,.24L273,213.3a1.45,1.45,0,0,0,2,.24l2.24-1.75a1.46,1.46,0,0,0,.24-2l-1.86-2.36a1.46,1.46,0,0,1,.25-2l2.25-1.77a1.45,1.45,0,0,1,2,.24l1.86,2.37A1.45,1.45,0,0,0,284.09,206.42Z"/><path class="cls-6" d="M219.79,141s12.66,16.84,15,33.55"/><path class="cls-6" d="M201.74,155.24s13.37,16.28,29.06,22.46"/><line class="cls-6" x1="213.14" y1="151.17" x2="232.78" y2="176.15"/><path class="cls-6" d="M268.73,203.3S255.36,187,239.67,180.83"/><path class="cls-6" d="M250.68,217.49S238,200.66,235.71,184"/><line class="cls-6" x1="257.33" y1="207.37" x2="237.69" y2="182.39"/><path class="cls-5" d="M410.34,291.63h0a1.45,1.45,0,0,0,1.27-1.62l-.21-1.77a66.83,66.83,0,0,0-25.17-44.55h0a1.46,1.46,0,0,1-.25-2h0a66.84,66.84,0,0,0,13.71-49.3l-.21-1.77a1.45,1.45,0,0,0-1.62-1.27h0a1.45,1.45,0,0,0-1.27,1.62l.37,3a1.45,1.45,0,0,1-1.27,1.61l-2.85.35a1.44,1.44,0,0,1-1.61-1.27l-.37-3a1.45,1.45,0,0,0-1.62-1.27l-2.82.35a1.45,1.45,0,0,0-1.27,1.62l.37,3a1.46,1.46,0,0,1-1.27,1.62l-2.84.35a1.45,1.45,0,0,1-1.62-1.27l-.37-3a1.45,1.45,0,0,0-1.62-1.26l-2.82.34a1.45,1.45,0,0,0-1.27,1.62l.37,3a1.47,1.47,0,0,1-1.27,1.62l-2.84.34a1.45,1.45,0,0,1-1.62-1.26l-.37-3a1.46,1.46,0,0,0-1.62-1.27l-2.82.35a1.46,1.46,0,0,0-1.27,1.62l.37,3a1.45,1.45,0,0,1-1.27,1.62l-2.84.35a1.45,1.45,0,0,1-1.62-1.27l-.37-3a1.45,1.45,0,0,0-1.62-1.27h0a1.45,1.45,0,0,0-1.26,1.62l.21,1.77A66.85,66.85,0,0,0,379,242.49h0a1.45,1.45,0,0,1,.25,2h0a66.9,66.9,0,0,0-13.71,49.29l.22,1.77a1.45,1.45,0,0,0,1.62,1.27h0a1.46,1.46,0,0,0,1.27-1.62l-.37-3a1.45,1.45,0,0,1,1.27-1.62l2.84-.35a1.45,1.45,0,0,1,1.62,1.27l.37,3a1.45,1.45,0,0,0,1.62,1.27l2.82-.34a1.47,1.47,0,0,0,1.27-1.62l-.37-3a1.45,1.45,0,0,1,1.27-1.62l2.84-.35a1.46,1.46,0,0,1,1.62,1.27l.37,3a1.45,1.45,0,0,0,1.62,1.26l2.82-.34a1.45,1.45,0,0,0,1.26-1.62l-.36-3a1.44,1.44,0,0,1,1.27-1.61l2.84-.35a1.45,1.45,0,0,1,1.62,1.27l.37,3A1.44,1.44,0,0,0,398.9,293l2.83-.35a1.45,1.45,0,0,0,1.26-1.62l-.36-3a1.45,1.45,0,0,1,1.27-1.62l2.84-.35a1.46,1.46,0,0,1,1.62,1.27l.36,3A1.46,1.46,0,0,0,410.34,291.63Z"/><path class="cls-6" d="M389.23,202.4s2.11,21-4.58,36.45"/><path class="cls-6" d="M366.44,205.18s3,20.85,13.21,34.28"/><line class="cls-6" x1="378.3" y1="207.61" x2="382.15" y2="239.15"/><path class="cls-6" d="M398.83,281s-3-20.86-13.22-34.28"/><path class="cls-6" d="M376,283.79s-2.1-21,4.59-36.45"/><line class="cls-6" x1="386.96" y1="278.57" x2="383.11" y2="247.03"/><path class="cls-5" d="M397.3,169.19h0a1.45,1.45,0,0,0,.24-2l-1.1-1.41a66.89,66.89,0,0,0-44.61-25.06h0a1.44,1.44,0,0,1-1.27-1.61h0A66.88,66.88,0,0,0,336.74,89.8l-1.11-1.4a1.46,1.46,0,0,0-2-.25h0a1.47,1.47,0,0,0-.25,2l1.86,2.36a1.45,1.45,0,0,1-.24,2l-2.25,1.77a1.45,1.45,0,0,1-2-.24l-1.86-2.37a1.46,1.46,0,0,0-2.05-.24l-2.23,1.76a1.45,1.45,0,0,0-.24,2l1.85,2.36a1.46,1.46,0,0,1-.24,2l-2.25,1.77a1.46,1.46,0,0,1-2-.25l-1.86-2.36a1.46,1.46,0,0,0-2-.25l-2.24,1.76a1.45,1.45,0,0,0-.24,2l1.86,2.37a1.46,1.46,0,0,1-.25,2l-2.25,1.77a1.44,1.44,0,0,1-2-.25L310.69,108a1.45,1.45,0,0,0-2-.24l-2.24,1.75a1.45,1.45,0,0,0-.24,2l1.86,2.37a1.46,1.46,0,0,1-.25,2l-2.25,1.77a1.45,1.45,0,0,1-2-.24l-1.86-2.37a1.45,1.45,0,0,0-2-.24h0a1.45,1.45,0,0,0-.25,2l1.11,1.4a66.79,66.79,0,0,0,44.61,25.06h0a1.47,1.47,0,0,1,1.27,1.62h0a66.84,66.84,0,0,0,13.82,49.27l1.11,1.4a1.45,1.45,0,0,0,2,.24h0a1.45,1.45,0,0,0,.24-2l-1.86-2.36a1.46,1.46,0,0,1,.25-2l2.25-1.78a1.46,1.46,0,0,1,2,.25l1.86,2.36a1.45,1.45,0,0,0,2,.25l2.24-1.76a1.45,1.45,0,0,0,.24-2l-1.86-2.37a1.45,1.45,0,0,1,.25-2l2.25-1.77a1.46,1.46,0,0,1,2,.25l1.86,2.36a1.46,1.46,0,0,0,2,.25l2.24-1.76a1.45,1.45,0,0,0,.24-2l-1.86-2.37a1.44,1.44,0,0,1,.25-2l2.25-1.77a1.45,1.45,0,0,1,2,.24l1.86,2.37a1.45,1.45,0,0,0,2,.24l2.24-1.75a1.46,1.46,0,0,0,.24-2.05l-1.86-2.36a1.44,1.44,0,0,1,.25-2l2.25-1.77a1.45,1.45,0,0,1,2,.24l1.86,2.37A1.45,1.45,0,0,0,397.3,169.19Z"/><path class="cls-6" d="M333,103.82s12.66,16.83,15,33.54"/><path class="cls-6" d="M314.94,118s13.37,16.28,29.07,22.47"/><line class="cls-6" x1="326.35" y1="113.94" x2="345.99" y2="138.92"/><path class="cls-6" d="M381.94,166.07s-13.37-16.28-29.06-22.47"/><path class="cls-6" d="M363.89,180.26s-12.66-16.83-15-33.54"/><line class="cls-6" x1="370.54" y1="170.14" x2="350.9" y2="145.16"/><path class="cls-5" d="M215.56,360.34h0a1.46,1.46,0,0,0-.17-2L214,357.13a66.81,66.81,0,0,0-48.68-15.74h0a1.47,1.47,0,0,1-1.57-1.34h0a66.84,66.84,0,0,0-23.29-45.56l-1.36-1.15a1.45,1.45,0,0,0-2,.16h0a1.46,1.46,0,0,0,.16,2.05l2.29,1.95a1.45,1.45,0,0,1,.17,2.05l-1.86,2.18a1.46,1.46,0,0,1-2.05.16l-2.29-1.95a1.46,1.46,0,0,0-2.05.17l-1.84,2.16a1.46,1.46,0,0,0,.16,2.05l2.29,1.95a1.46,1.46,0,0,1,.17,2.05l-1.86,2.18a1.46,1.46,0,0,1-2.05.17L126,308.72a1.46,1.46,0,0,0-2,.16l-1.84,2.17a1.45,1.45,0,0,0,.16,2.05l2.29,1.95a1.46,1.46,0,0,1,.16,2.05l-1.85,2.18a1.46,1.46,0,0,1-2.05.16l-2.29-1.95a1.46,1.46,0,0,0-2,.16l-1.85,2.17a1.46,1.46,0,0,0,.17,2.05l2.29,1.95a1.46,1.46,0,0,1,.16,2.05l-1.86,2.18a1.46,1.46,0,0,1-2,.16l-2.29-1.95a1.46,1.46,0,0,0-2,.17h0a1.46,1.46,0,0,0,.17,2.05l1.36,1.16a66.86,66.86,0,0,0,48.68,15.74h0a1.46,1.46,0,0,1,1.57,1.33h0a66.8,66.8,0,0,0,23.29,45.56l1.36,1.16a1.46,1.46,0,0,0,2-.16h0a1.46,1.46,0,0,0-.16-2l-2.29-2a1.45,1.45,0,0,1-.17-2l1.86-2.18a1.45,1.45,0,0,1,2.05-.17l2.29,1.95a1.46,1.46,0,0,0,2-.16l1.84-2.17a1.46,1.46,0,0,0-.16-2.05l-2.29-1.95a1.46,1.46,0,0,1-.17-2.05l1.86-2.18a1.46,1.46,0,0,1,2.05-.16l2.29,1.95a1.45,1.45,0,0,0,2.05-.17l1.84-2.16a1.45,1.45,0,0,0-.16-2.05L200,371.72a1.46,1.46,0,0,1-.16-2.05l1.85-2.18a1.45,1.45,0,0,1,2.05-.16l2.29,1.95a1.46,1.46,0,0,0,2.05-.17l1.85-2.16a1.46,1.46,0,0,0-.17-2.05L207.47,363a1.46,1.46,0,0,1-.16-2.05l1.86-2.18a1.45,1.45,0,0,1,2.05-.17l2.29,1.95A1.46,1.46,0,0,0,215.56,360.34Z"/><path class="cls-6" d="M139.59,309s15.75,14,21.32,29.92"/><path class="cls-6" d="M124.71,326.45s16.32,13.31,32.93,16.28"/><line class="cls-6" x1="135.08" y1="320.2" x2="159.27" y2="340.81"/><path class="cls-6" d="M199.88,360.32S183.56,347,167,344"/><path class="cls-6" d="M185,377.8s-15.75-14-21.32-29.93"/><line class="cls-6" x1="189.51" y1="366.56" x2="165.32" y2="345.96"/><path class="cls-5" d="M227.14,177.39h0a1.45,1.45,0,0,0-2-.58l-1.56.85a66.83,66.83,0,0,0-32.12,39.83h0a1.47,1.47,0,0,1-1.81,1h0a66.85,66.85,0,0,0-50.87,5.45l-1.57.85a1.45,1.45,0,0,0-.58,2h0a1.46,1.46,0,0,0,2,.58l2.64-1.44a1.44,1.44,0,0,1,2,.58l1.38,2.51a1.46,1.46,0,0,1-.58,2l-2.64,1.45a1.44,1.44,0,0,0-.58,2l1.36,2.49a1.44,1.44,0,0,0,2,.58l2.64-1.44a1.46,1.46,0,0,1,2,.58l1.38,2.52a1.46,1.46,0,0,1-.58,2l-2.64,1.44a1.44,1.44,0,0,0-.58,2l1.36,2.5a1.44,1.44,0,0,0,2,.58l2.64-1.44a1.45,1.45,0,0,1,2,.58l1.38,2.51a1.47,1.47,0,0,1-.58,2l-2.65,1.44a1.46,1.46,0,0,0-.58,2l1.37,2.5a1.46,1.46,0,0,0,2,.58l2.64-1.44a1.44,1.44,0,0,1,2,.58l1.38,2.51a1.46,1.46,0,0,1-.58,2l-2.65,1.44a1.47,1.47,0,0,0-.58,2h0a1.47,1.47,0,0,0,2,.58l1.57-.86A66.85,66.85,0,0,0,193,224.62h0a1.46,1.46,0,0,1,1.81-1h0a66.88,66.88,0,0,0,50.88-5.45l1.56-.86a1.44,1.44,0,0,0,.58-2h0a1.44,1.44,0,0,0-2-.58l-2.64,1.44a1.46,1.46,0,0,1-2-.58l-1.37-2.52a1.44,1.44,0,0,1,.58-2l2.64-1.44a1.46,1.46,0,0,0,.58-2l-1.37-2.5a1.46,1.46,0,0,0-2-.58l-2.64,1.44a1.44,1.44,0,0,1-2-.58L234.38,203a1.45,1.45,0,0,1,.58-2l2.64-1.44a1.46,1.46,0,0,0,.58-2l-1.37-2.5a1.46,1.46,0,0,0-2-.58L232.2,196a1.44,1.44,0,0,1-2-.58l-1.37-2.51a1.44,1.44,0,0,1,.58-2l2.64-1.44a1.47,1.47,0,0,0,.58-2L231.3,185a1.45,1.45,0,0,0-2-.58l-2.64,1.44a1.46,1.46,0,0,1-2-.58l-1.37-2.52a1.44,1.44,0,0,1,.58-2l2.64-1.44A1.46,1.46,0,0,0,227.14,177.39Z"/><path class="cls-6" d="M152,229.94s18.71-9.69,35.57-9.19"/><path class="cls-6" d="M163,250.1s18.28-10.48,27-24.93"/><line class="cls-6" x1="160.87" y1="238.18" x2="188.77" y2="222.96"/><path class="cls-6" d="M221.51,192s-18.27,10.49-27,24.94"/><path class="cls-6" d="M232.51,212.17s-18.7,9.7-35.57,9.2"/><line class="cls-6" x1="223.63" y1="203.94" x2="195.74" y2="219.16"/><path class="cls-5" d="M317.23,96.09h0a1.44,1.44,0,0,0-2-.58l-1.57.86a66.81,66.81,0,0,0-32.12,39.82h0a1.45,1.45,0,0,1-1.81,1h0a66.85,66.85,0,0,0-50.87,5.45l-1.57.86a1.44,1.44,0,0,0-.58,2h0a1.44,1.44,0,0,0,2,.58l2.64-1.44a1.46,1.46,0,0,1,2,.58l1.37,2.51a1.47,1.47,0,0,1-.58,2l-2.64,1.44a1.44,1.44,0,0,0-.58,2l1.36,2.5a1.46,1.46,0,0,0,2,.58l2.64-1.44a1.44,1.44,0,0,1,2,.58l1.38,2.51a1.46,1.46,0,0,1-.58,2L237,161.22a1.45,1.45,0,0,0-.58,2l1.36,2.49a1.44,1.44,0,0,0,2,.58l2.64-1.44a1.46,1.46,0,0,1,2,.58l1.38,2.52a1.46,1.46,0,0,1-.58,2l-2.64,1.44a1.44,1.44,0,0,0-.58,2l1.36,2.5a1.46,1.46,0,0,0,2,.58l2.64-1.44a1.44,1.44,0,0,1,2,.58l1.38,2.51a1.47,1.47,0,0,1-.58,2L248,181.46a1.44,1.44,0,0,0-.58,2h0a1.45,1.45,0,0,0,2,.58l1.57-.86a66.87,66.87,0,0,0,32.12-39.83h0a1.44,1.44,0,0,1,1.8-1h0a66.88,66.88,0,0,0,50.88-5.45l1.56-.86a1.44,1.44,0,0,0,.58-2h0a1.44,1.44,0,0,0-2-.58l-2.64,1.44a1.45,1.45,0,0,1-2-.58L330,131.83a1.45,1.45,0,0,1,.58-2l2.64-1.44a1.46,1.46,0,0,0,.58-2l-1.37-2.5a1.46,1.46,0,0,0-2-.58l-2.64,1.44a1.44,1.44,0,0,1-2-.58l-1.37-2.51a1.44,1.44,0,0,1,.58-2l2.64-1.44a1.47,1.47,0,0,0,.58-2l-1.36-2.49a1.45,1.45,0,0,0-2-.58l-2.64,1.44a1.46,1.46,0,0,1-2-.58L319,111.59a1.44,1.44,0,0,1,.58-2l2.64-1.44a1.46,1.46,0,0,0,.58-2l-1.36-2.5a1.47,1.47,0,0,0-2-.58l-2.64,1.44a1.44,1.44,0,0,1-2-.58l-1.37-2.51a1.45,1.45,0,0,1,.58-2l2.64-1.44A1.46,1.46,0,0,0,317.23,96.09Z"/><path class="cls-6" d="M242.08,148.65s18.71-9.7,35.57-9.2"/><path class="cls-6" d="M253.08,168.8s18.28-10.48,27-24.93"/><line class="cls-6" x1="250.96" y1="156.88" x2="278.86" y2="141.66"/><path class="cls-6" d="M311.6,110.72s-18.27,10.48-27,24.93"/><path class="cls-6" d="M322.6,130.87s-18.7,9.7-35.57,9.2"/><line class="cls-6" x1="313.72" y1="122.64" x2="285.83" y2="137.86"/><path class="cls-5" d="M325.59,318h0a1.45,1.45,0,0,0-2-.58l-1.57.85a66.88,66.88,0,0,0-32.11,39.83h0a1.47,1.47,0,0,1-1.81,1h0a66.88,66.88,0,0,0-50.88,5.45l-1.56.86a1.44,1.44,0,0,0-.58,2h0a1.46,1.46,0,0,0,2,.58l2.64-1.44a1.44,1.44,0,0,1,2,.58l1.37,2.51a1.45,1.45,0,0,1-.58,2L239.83,373a1.46,1.46,0,0,0-.58,2l1.37,2.49a1.44,1.44,0,0,0,2,.58l2.64-1.44a1.46,1.46,0,0,1,2,.58l1.37,2.52a1.44,1.44,0,0,1-.58,2l-2.64,1.44a1.47,1.47,0,0,0-.58,2l1.37,2.49a1.44,1.44,0,0,0,2,.58l2.64-1.44a1.46,1.46,0,0,1,2,.58l1.37,2.52a1.44,1.44,0,0,1-.58,2l-2.64,1.44a1.46,1.46,0,0,0-.58,2l1.36,2.5a1.47,1.47,0,0,0,2,.58l2.64-1.44a1.44,1.44,0,0,1,2,.58l1.37,2.51a1.44,1.44,0,0,1-.58,2l-2.64,1.45a1.46,1.46,0,0,0-.58,2h0a1.47,1.47,0,0,0,2,.58l1.56-.86a66.83,66.83,0,0,0,32.12-39.83h0a1.46,1.46,0,0,1,1.81-1h0a66.85,66.85,0,0,0,50.87-5.45l1.57-.86a1.44,1.44,0,0,0,.58-2h0a1.44,1.44,0,0,0-2-.58l-2.64,1.44a1.46,1.46,0,0,1-2-.58l-1.38-2.52a1.46,1.46,0,0,1,.58-2l2.64-1.44a1.44,1.44,0,0,0,.58-2l-1.36-2.5a1.46,1.46,0,0,0-2-.58l-2.64,1.44a1.44,1.44,0,0,1-2-.58l-1.38-2.51a1.47,1.47,0,0,1,.58-2l2.64-1.44a1.44,1.44,0,0,0,.58-2l-1.36-2.5a1.46,1.46,0,0,0-2-.58l-2.64,1.45a1.46,1.46,0,0,1-2-.58l-1.38-2.52a1.46,1.46,0,0,1,.58-2l2.65-1.44a1.47,1.47,0,0,0,.58-2l-1.37-2.49a1.44,1.44,0,0,0-2-.58l-2.64,1.44a1.46,1.46,0,0,1-2-.58l-1.37-2.52a1.44,1.44,0,0,1,.58-2l2.64-1.44A1.46,1.46,0,0,0,325.59,318Z"/><path class="cls-6" d="M250.44,370.5s18.71-9.69,35.57-9.19"/><path class="cls-6" d="M261.44,390.66s18.27-10.48,27-24.93"/><line class="cls-6" x1="259.32" y1="378.74" x2="287.21" y2="363.52"/><path class="cls-6" d="M320,332.57s-18.27,10.49-27,24.94"/><path class="cls-6" d="M331,352.73s-18.71,9.7-35.57,9.2"/><line class="cls-6" x1="322.08" y1="344.5" x2="294.18" y2="359.72"/><path class="cls-5" d="M362.06,226.77h0a1.47,1.47,0,0,0-2-.58l-1.57.86a66.85,66.85,0,0,0-32.11,39.83h0a1.46,1.46,0,0,1-1.81,1h0a66.84,66.84,0,0,0-50.88,5.46l-1.56.85a1.44,1.44,0,0,0-.58,2h0a1.44,1.44,0,0,0,2,.58l2.64-1.44a1.46,1.46,0,0,1,2,.58l1.37,2.52a1.44,1.44,0,0,1-.58,2l-2.64,1.44a1.46,1.46,0,0,0-.58,2l1.37,2.5a1.44,1.44,0,0,0,2,.58l2.64-1.44a1.45,1.45,0,0,1,2,.58l1.37,2.51a1.45,1.45,0,0,1-.58,2l-2.64,1.44a1.46,1.46,0,0,0-.58,2l1.37,2.5a1.46,1.46,0,0,0,2,.58l2.64-1.44a1.44,1.44,0,0,1,2,.58l1.37,2.51a1.44,1.44,0,0,1-.58,2L287.34,302a1.47,1.47,0,0,0-.58,2l1.36,2.49a1.45,1.45,0,0,0,2,.58l2.64-1.44a1.46,1.46,0,0,1,2,.58l1.37,2.52a1.44,1.44,0,0,1-.58,2l-2.64,1.44a1.46,1.46,0,0,0-.58,2h0a1.45,1.45,0,0,0,2,.58l1.56-.85A66.83,66.83,0,0,0,327.94,274h0a1.47,1.47,0,0,1,1.81-1h0a66.85,66.85,0,0,0,50.87-5.45l1.57-.85a1.45,1.45,0,0,0,.58-2h0a1.46,1.46,0,0,0-2-.58l-2.64,1.44a1.44,1.44,0,0,1-2-.58l-1.38-2.51a1.46,1.46,0,0,1,.58-2L378,259.1a1.45,1.45,0,0,0,.58-2l-1.36-2.49a1.44,1.44,0,0,0-2-.58l-2.64,1.44a1.46,1.46,0,0,1-2-.58l-1.38-2.52a1.46,1.46,0,0,1,.58-2l2.64-1.44a1.44,1.44,0,0,0,.58-2l-1.36-2.5a1.45,1.45,0,0,0-2-.58l-2.64,1.44a1.44,1.44,0,0,1-2-.58l-1.38-2.51a1.47,1.47,0,0,1,.58-2l2.65-1.44a1.46,1.46,0,0,0,.58-2l-1.37-2.5a1.46,1.46,0,0,0-2-.58l-2.64,1.44a1.44,1.44,0,0,1-2-.58l-1.38-2.51a1.46,1.46,0,0,1,.58-2l2.65-1.44A1.47,1.47,0,0,0,362.06,226.77Z"/><path class="cls-6" d="M286.91,279.33s18.71-9.69,35.57-9.2"/><path class="cls-6" d="M297.91,299.49s18.27-10.48,27-24.94"/><line class="cls-6" x1="295.79" y1="287.56" x2="323.68" y2="272.34"/><path class="cls-6" d="M356.43,241.4s-18.28,10.48-27,24.93"/><path class="cls-6" d="M367.43,261.56s-18.71,9.69-35.57,9.19"/><line class="cls-6" x1="358.55" y1="253.32" x2="330.65" y2="268.54"/><path class="cls-7" d="M309.83,337.51a84.35,84.35,0,0,0,17.25-61.63c-2.68-23-13.21-44.65-13-68.08.09-11.49,2.95-23.15,10.45-32.1,1.58-1.9-1.42-4.28-3-2.38-13.91,16.6-12.72,40.16-8.13,60,2.73,11.8,6.5,23.35,8.71,35.26a86.45,86.45,0,0,1,0,33.77,79.9,79.9,0,0,1-15.31,32.77c-1.53,1.94,1.48,4.33,3,2.38Z"/><path class="cls-8" d="M299.56,198.11h0a29.9,29.9,0,0,1-7.07-14.73,41.19,41.19,0,0,0,9.2,7.54c3.47,2.1,7.28,3.71,10.3,6.42,2,1.8,7.64,10.9,1.48,11.13-2.27.08-5.28-2.72-7-4A42.11,42.11,0,0,1,299.56,198.11Z"/><path class="cls-8" d="M307.34,174.12h0a29.92,29.92,0,0,1-7.07-14.72,41.69,41.69,0,0,0,9.2,7.54c3.47,2.09,7.28,3.71,10.3,6.42,2,1.8,7.65,10.9,1.49,11.12-2.28.09-5.29-2.71-7-4A42.14,42.14,0,0,1,307.34,174.12Z"/><path class="cls-8" d="M300.86,222.39h0a29.9,29.9,0,0,1-7.07-14.73,41.41,41.41,0,0,0,9.2,7.54c3.47,2.1,7.28,3.71,10.3,6.42,2,1.8,7.65,10.9,1.48,11.13-2.27.08-5.28-2.72-7-4A42.52,42.52,0,0,1,300.86,222.39Z"/><path class="cls-8" d="M304.76,248.46h0a29.86,29.86,0,0,1-7.07-14.73,41.41,41.41,0,0,0,9.2,7.54c3.47,2.1,7.28,3.71,10.3,6.42,2,1.81,7.65,10.9,1.48,11.13-2.27.08-5.28-2.72-7-4A42.62,42.62,0,0,1,304.76,248.46Z"/><path class="cls-8" d="M310.24,271.84h0a29.92,29.92,0,0,1-7.07-14.72,41.93,41.93,0,0,0,9.2,7.54c3.47,2.09,7.28,3.71,10.3,6.42,2,1.8,7.65,10.9,1.49,11.12-2.27.09-5.29-2.71-7-4A42.14,42.14,0,0,1,310.24,271.84Z"/><path class="cls-8" d="M310.32,292.91h0a29.87,29.87,0,0,1-7.07-14.72,41.92,41.92,0,0,0,9.19,7.54c3.47,2.09,7.29,3.71,10.31,6.41,2,1.81,7.64,10.91,1.48,11.13-2.27.08-5.28-2.71-7-4A41.74,41.74,0,0,1,310.32,292.91Z"/><path class="cls-8" d="M304.15,305.75h0A29.93,29.93,0,0,1,297.09,291a41.36,41.36,0,0,0,9.19,7.54c3.47,2.1,7.29,3.71,10.3,6.42,2,1.81,7.65,10.9,1.49,11.13-2.27.08-5.29-2.72-7-4A43.46,43.46,0,0,1,304.15,305.75Z"/><path class="cls-8" d="M334.37,304.17h0a29.94,29.94,0,0,1,16.34.09,41.09,41.09,0,0,0-10.81,5c-3.4,2.2-6.52,4.93-10.27,6.46-2.51,1-13.15,2.1-10.66-3.54.92-2.08,4.75-3.56,6.66-4.55A42.11,42.11,0,0,1,334.37,304.17Z"/><path class="cls-8" d="M338.93,288.45h0a29.9,29.9,0,0,1,16.33.09,41.83,41.83,0,0,0-10.8,5c-3.4,2.2-6.52,4.93-10.28,6.46-2.5,1-13.15,2.1-10.65-3.54.92-2.07,4.75-3.56,6.65-4.55A43,43,0,0,1,338.93,288.45Z"/><path class="cls-8" d="M336.7,270h0a29.9,29.9,0,0,1,16.33.09,41.17,41.17,0,0,0-10.8,5c-3.4,2.2-6.52,4.93-10.28,6.45-2.5,1-13.15,2.11-10.65-3.53.92-2.08,4.75-3.56,6.65-4.55A42.41,42.41,0,0,1,336.7,270Z"/><path class="cls-8" d="M333.39,242h0a29.94,29.94,0,0,1,16.34.09,41.74,41.74,0,0,0-10.81,5c-3.4,2.2-6.52,4.93-10.27,6.46-2.51,1-13.15,2.1-10.66-3.54.92-2.08,4.75-3.56,6.66-4.55A42.89,42.89,0,0,1,333.39,242Z"/><path class="cls-8" d="M329.3,219.07h0a29.9,29.9,0,0,1,16.33.09,41.17,41.17,0,0,0-10.8,5c-3.4,2.2-6.52,4.93-10.28,6.45-2.5,1-13.15,2.11-10.65-3.53.91-2.08,4.75-3.56,6.65-4.55A42.19,42.19,0,0,1,329.3,219.07Z"/><path class="cls-8" d="M328.72,196.15h0a29.81,29.81,0,0,1,16.33.08,41.83,41.83,0,0,0-10.8,5c-3.4,2.21-6.52,4.93-10.27,6.46-2.51,1-13.15,2.11-10.66-3.53.92-2.08,4.75-3.57,6.65-4.56A42.38,42.38,0,0,1,328.72,196.15Z"/><path class="cls-8" d="M334.5,175.66h0a29.94,29.94,0,0,1,16.34.09,41.41,41.41,0,0,0-10.81,5c-3.4,2.2-6.52,4.93-10.27,6.46-2.51,1-13.15,2.1-10.66-3.54.92-2.08,4.75-3.56,6.66-4.55A42.32,42.32,0,0,1,334.5,175.66Z"/><path class="cls-4" d="M188.46,171.16A16.63,16.63,0,1,0,200.2,176,16.54,16.54,0,0,0,188.46,171.16Zm0,24.17a7.55,7.55,0,1,1,7.55-7.55,7.55,7.55,0,0,1-7.55,7.55Z"/><path class="cls-4" d="M289.47,233.76a16.63,16.63,0,1,0,11.75,4.87A16.56,16.56,0,0,0,289.47,233.76Zm0,24.17a7.55,7.55,0,1,1,5.34-2.21A7.51,7.51,0,0,1,289.47,257.93Z"/><path class="cls-4" d="M178.5,312a16.61,16.61,0,1,0,11.75,4.87A16.54,16.54,0,0,0,178.5,312Zm0,24.17a7.55,7.55,0,1,1,7.55-7.55,7.55,7.55,0,0,1-7.55,7.55Z"/><path class="cls-4" d="M350,144.93a16.61,16.61,0,1,0,11.75,4.86A16.59,16.59,0,0,0,350,144.93Zm0,24.16a7.56,7.56,0,1,1,5.34-2.21A7.53,7.53,0,0,1,350,169.09Z"/><path class="cls-7" d="M309.22,130.3a84.36,84.36,0,0,0-63.87,4.11c-20.85,10.14-37.77,27.22-59.95,34.79-10.87,3.71-22.83,4.86-33.75.75-2.31-.87-3.57,2.76-1.25,3.63,20.27,7.63,42.11-1.29,59.32-12.18,10.23-6.48,19.89-13.85,30.4-19.87A86.23,86.23,0,0,1,272,130.32a79.93,79.93,0,0,1,36,3.61c2.33.8,3.59-2.83,1.25-3.63Z"/><path class="cls-8" d="M181.05,186.09h0a29.75,29.75,0,0,1-11.56,11.54,41.48,41.48,0,0,0,4.08-11.17c.83-4,1.09-8.1,2.65-11.84,1-2.5,7.76-10.82,10-5.08.83,2.11-.82,5.88-1.45,7.93A42.23,42.23,0,0,1,181.05,186.09Z"/><path class="cls-8" d="M155.85,186.68h0a30,30,0,0,1-11.56,11.54,41.7,41.7,0,0,0,4.07-11.17c.83-4,1.09-8.1,2.65-11.85,1-2.49,7.76-10.82,10-5.08.83,2.12-.81,5.89-1.45,7.93A42.27,42.27,0,0,1,155.85,186.68Z"/><path class="cls-8" d="M203.54,176.84h0A30,30,0,0,1,192,188.38a41.65,41.65,0,0,0,4.07-11.18c.83-4,1.09-8.1,2.65-11.84,1-2.5,7.76-10.82,10-5.08.83,2.12-.81,5.88-1.45,7.93A42.51,42.51,0,0,1,203.54,176.84Z"/><path class="cls-8" d="M226.85,164.53h0a29.75,29.75,0,0,1-11.56,11.54,41.48,41.48,0,0,0,4.08-11.17c.83-4,1.09-8.1,2.65-11.84,1-2.5,7.76-10.82,10-5.08.83,2.11-.82,5.88-1.45,7.93A42.23,42.23,0,0,1,226.85,164.53Z"/><path class="cls-8" d="M247.11,151.63h0a30,30,0,0,1-11.56,11.54A41.7,41.7,0,0,0,239.62,152c.83-4,1.1-8.11,2.65-11.85,1-2.5,7.76-10.82,10-5.08.83,2.12-.81,5.89-1.45,7.93A42.27,42.27,0,0,1,247.11,151.63Z"/><path class="cls-8" d="M267,144.59h0a30,30,0,0,1-11.56,11.54A41.58,41.58,0,0,0,259.48,145c.83-4,1.09-8.1,2.65-11.84,1-2.5,7.76-10.83,10-5.08.83,2.11-.81,5.88-1.45,7.93A42.43,42.43,0,0,1,267,144.59Z"/><path class="cls-8" d="M281.12,146.16h0a30,30,0,0,1-11.56,11.54,42,42,0,0,0,4.08-11.17c.83-4,1.09-8.1,2.64-11.84,1-2.5,7.77-10.83,10-5.08.82,2.11-.82,5.88-1.46,7.93A42.43,42.43,0,0,1,281.12,146.16Z"/><path class="cls-8" d="M269.64,118.17h0a29.89,29.89,0,0,1-5.32-15.45,41.34,41.34,0,0,0,8.26,8.55c3.21,2.49,6.81,4.53,9.49,7.57,1.79,2,6.34,11.71.19,11.22-2.26-.18-4.93-3.3-6.49-4.77A42,42,0,0,1,269.64,118.17Z"/><path class="cls-8" d="M253.3,119.06h0A29.83,29.83,0,0,1,248,103.62a41.08,41.08,0,0,0,8.26,8.55c3.21,2.48,6.81,4.53,9.49,7.57,1.79,2,6.34,11.71.19,11.22-2.26-.18-4.93-3.31-6.49-4.77A41.68,41.68,0,0,1,253.3,119.06Z"/><path class="cls-8" d="M236.6,127.28h0a30,30,0,0,1-5.32-15.45,41.6,41.6,0,0,0,8.26,8.55c3.21,2.49,6.81,4.53,9.5,7.57,1.79,2,6.33,11.71.19,11.22-2.27-.18-4.94-3.3-6.5-4.77A42.92,42.92,0,0,1,236.6,127.28Z"/><path class="cls-8" d="M211.24,139.66h0a29.92,29.92,0,0,1-5.32-15.44,41.39,41.39,0,0,0,8.27,8.55c3.2,2.48,6.8,4.53,9.49,7.56,1.79,2,6.33,11.72.19,11.23-2.27-.18-4.94-3.31-6.5-4.77A42.58,42.58,0,0,1,211.24,139.66Z"/><path class="cls-8" d="M191,151.1h0a30,30,0,0,1-5.32-15.45A41.39,41.39,0,0,0,194,144.2c3.2,2.49,6.8,4.53,9.49,7.57,1.79,2,6.34,11.71.19,11.22-2.27-.18-4.94-3.3-6.5-4.77A42.92,42.92,0,0,1,191,151.1Z"/><path class="cls-8" d="M169.56,159.22h0a29.83,29.83,0,0,1-5.32-15.44,41.84,41.84,0,0,0,8.26,8.55c3.21,2.48,6.81,4.52,9.49,7.56,1.79,2,6.34,11.71.19,11.23-2.26-.18-4.93-3.31-6.49-4.78A42,42,0,0,1,169.56,159.22Z"/><path class="cls-8" d="M148.32,160.54h0A29.87,29.87,0,0,1,143,145.09a41.39,41.39,0,0,0,8.27,8.55c3.2,2.49,6.81,4.53,9.49,7.57,1.79,2,6.34,11.71.19,11.22-2.27-.18-4.94-3.3-6.5-4.77A42.39,42.39,0,0,1,148.32,160.54Z"/><path class="cls-7" d="M123.35,220.89a84.33,84.33,0,0,0,37.76,51.67c19.76,12.13,43.25,17.23,61.55,31.88,9,7.17,16.36,16.64,18.76,28.06.51,2.42,4.24,1.53,3.74-.89-4.45-21.2-23.71-34.83-42.14-43.5-11-5.15-22.37-9.33-33.1-15a86.37,86.37,0,0,1-26.56-20.85A79.83,79.83,0,0,1,127.08,220c-.58-2.4-4.32-1.52-3.73.89Z"/><path class="cls-8" d="M239.25,299h0a29.87,29.87,0,0,1,15.94,3.55,41.62,41.62,0,0,0-11.61,2.56c-3.79,1.44-7.42,3.43-11.41,4.13-2.67.47-13.3-.73-9.67-5.71,1.34-1.84,5.4-2.48,7.47-3A42.27,42.27,0,0,1,239.25,299Z"/><path class="cls-8" d="M253.28,320h0a29.87,29.87,0,0,1,15.94,3.55,41.7,41.7,0,0,0-11.61,2.56c-3.79,1.43-7.42,3.43-11.41,4.13-2.67.47-13.3-.73-9.66-5.72,1.34-1.83,5.4-2.47,7.46-3A42.27,42.27,0,0,1,253.28,320Z"/><path class="cls-8" d="M219.36,285h0a29.87,29.87,0,0,1,15.94,3.55,41.7,41.7,0,0,0-11.61,2.56c-3.79,1.43-7.42,3.43-11.41,4.13-2.67.47-13.3-.73-9.66-5.72,1.34-1.83,5.4-2.47,7.46-3A42.27,42.27,0,0,1,219.36,285Z"/><path class="cls-8" d="M196.46,272h0a29.85,29.85,0,0,1,15.94,3.55,41.7,41.7,0,0,0-11.61,2.56c-3.79,1.44-7.42,3.44-11.41,4.13-2.66.47-13.3-.73-9.66-5.71,1.34-1.84,5.4-2.48,7.47-3A42.09,42.09,0,0,1,196.46,272Z"/><path class="cls-8" d="M174.69,261.83h0a29.81,29.81,0,0,1,15.95,3.55A41.77,41.77,0,0,0,179,267.94c-3.79,1.43-7.42,3.43-11.41,4.13-2.66.46-13.3-.74-9.66-5.72,1.34-1.83,5.4-2.47,7.47-3A42.28,42.28,0,0,1,174.69,261.83Z"/><path class="cls-8" d="M158.09,248.85h0A29.88,29.88,0,0,1,174,252.41,41.7,41.7,0,0,0,162.42,255c-3.79,1.43-7.42,3.43-11.41,4.13-2.66.46-13.3-.74-9.66-5.72,1.34-1.83,5.4-2.47,7.47-3A42.7,42.7,0,0,1,158.09,248.85Z"/><path class="cls-8" d="M151.81,236.07h0a29.91,29.91,0,0,1,15.95,3.56,41.42,41.42,0,0,0-11.62,2.56c-3.79,1.43-7.41,3.43-11.41,4.13-2.66.46-13.3-.74-9.66-5.72,1.34-1.83,5.4-2.47,7.47-3A42.3,42.3,0,0,1,151.81,236.07Z"/><path class="cls-8" d="M134.37,260.8h0a30,30,0,0,1-10.17,12.78A41.53,41.53,0,0,0,127,262c.37-4,.16-8.18,1.28-12.07.75-2.6,6.48-11.64,9.37-6.19,1.06,2-.14,5.94-.54,8A42.25,42.25,0,0,1,134.37,260.8Z"/><path class="cls-8" d="M143.9,274.1h0a29.92,29.92,0,0,1-10.16,12.78,41.8,41.8,0,0,0,2.77-11.56c.37-4,.16-8.18,1.28-12.07.75-2.6,6.47-11.64,9.37-6.19,1.06,2-.14,5.94-.54,8A42.1,42.1,0,0,1,143.9,274.1Z"/><path class="cls-8" d="M159.8,283.77h0a30,30,0,0,1-10.17,12.78A41.45,41.45,0,0,0,152.4,285c.38-4,.16-8.17,1.28-12.07.75-2.6,6.48-11.64,9.37-6.19,1.06,2-.14,5.94-.54,8A42.07,42.07,0,0,1,159.8,283.77Z"/><path class="cls-8" d="M183.87,298.5h0a30,30,0,0,1-10.17,12.79,41.6,41.6,0,0,0,2.77-11.57c.38-4,.16-8.17,1.28-12.07.75-2.59,6.48-11.63,9.37-6.18,1.07,2-.14,5.93-.54,8A42.16,42.16,0,0,1,183.87,298.5Z"/><path class="cls-8" d="M204.38,309.43h0a29.84,29.84,0,0,1-10.17,12.79A41.53,41.53,0,0,0,197,310.65c.37-4,.16-8.17,1.28-12.06.75-2.6,6.47-11.64,9.36-6.19,1.07,2-.13,5.94-.53,8A42,42,0,0,1,204.38,309.43Z"/><path class="cls-8" d="M222.75,323.16h0a29.81,29.81,0,0,1-10.16,12.78,41.45,41.45,0,0,0,2.77-11.56c.37-4,.16-8.17,1.28-12.07.75-2.6,6.48-11.64,9.37-6.19,1.06,2-.14,5.94-.54,8A42.1,42.1,0,0,1,222.75,323.16Z"/><path class="cls-8" d="M235.28,340.37h0a29.9,29.9,0,0,1-10.17,12.78,41.45,41.45,0,0,0,2.77-11.56c.37-4,.16-8.17,1.28-12.07.75-2.6,6.48-11.63,9.37-6.19,1.06,2-.14,5.94-.54,8.05A42.74,42.74,0,0,1,235.28,340.37Z"/></svg>